<svg width="842" height="520" viewBox="0 0 842 520" fill="none" xmlns="http://www.w3.org/2000/svg">
<g filter="url(#filter0_d_718_11611)">
<path d="M7 59.5368C7 34.7707 7 22.3877 14.6938 14.6938C22.3877 7 34.7707 7 59.5368 7H782.463C807.229 7 819.612 7 827.306 14.6938C835 22.3877 835 34.7707 835 59.5368V460.463C835 485.229 835 497.612 827.306 505.306C819.612 513 807.229 513 782.463 513H59.5368C34.7707 513 22.3877 513 14.6938 505.306C7 497.612 7 485.229 7 460.463V59.5368Z" fill="white"/>
<path d="M40.6984 74.0366H34.2059L44.0986 45.3802H51.9063L61.785 74.0366H55.2925L48.1144 51.9286H47.8905L40.6984 74.0366ZM40.2926 62.7727H55.6283V67.5022H40.2926V62.7727ZM78.9047 64.8856V52.5443H84.8654V74.0366H79.1425V70.1327H78.9186C78.4336 71.3921 77.6267 72.4042 76.498 73.1691C75.3786 73.934 74.012 74.3165 72.3982 74.3165C70.9616 74.3165 69.6977 73.99 68.6062 73.337C67.5148 72.684 66.6613 71.7559 66.0456 70.5525C65.4393 69.3492 65.1315 67.9079 65.1221 66.2289V52.5443H71.0829V65.1654C71.0922 66.4341 71.4327 67.4369 72.1043 68.1738C72.776 68.9107 73.6762 69.2792 74.8049 69.2792C75.5232 69.2792 76.1948 69.116 76.8198 68.7895C77.4448 68.4537 77.9485 67.9593 78.331 67.3063C78.7228 66.6533 78.914 65.8464 78.9047 64.8856ZM99.3161 82.544C97.3851 82.544 95.7294 82.2781 94.3488 81.7464C92.9775 81.2241 91.8861 80.5104 91.0745 79.6056C90.263 78.7008 89.7359 77.684 89.4934 76.5553L95.0064 75.8137C95.1743 76.2428 95.4402 76.6439 95.804 77.017C96.1678 77.3901 96.6482 77.6886 97.2452 77.9125C97.8515 78.1457 98.5885 78.2623 99.456 78.2623C100.753 78.2623 101.821 77.9452 102.66 77.3108C103.509 76.6858 103.934 75.6364 103.934 74.1626V70.2307H103.682C103.421 70.8277 103.029 71.3921 102.506 71.9238C101.984 72.4555 101.312 72.8892 100.491 73.2251C99.6705 73.5609 98.6911 73.7288 97.553 73.7288C95.9392 73.7288 94.47 73.3557 93.1454 72.6094C91.8301 71.8538 90.7807 70.7018 89.9971 69.1533C89.2229 67.5955 88.8358 65.6272 88.8358 63.2485C88.8358 60.8138 89.2322 58.7802 90.0251 57.1478C90.818 55.5153 91.8721 54.2933 93.1874 53.4818C94.512 52.6702 95.9626 52.2644 97.539 52.2644C98.7424 52.2644 99.7498 52.4697 100.561 52.8801C101.373 53.2812 102.026 53.7849 102.52 54.3913C103.024 54.9883 103.411 55.576 103.682 56.1543H103.906V52.5443H109.824V74.2465C109.824 76.0748 109.377 77.6047 108.481 78.836C107.586 80.0673 106.345 80.9908 104.759 81.6065C103.183 82.2315 101.368 82.544 99.3161 82.544ZM99.442 69.2512C100.403 69.2512 101.214 69.0133 101.877 68.5376C102.548 68.0525 103.061 67.3622 103.416 66.4667C103.78 65.5619 103.962 64.4798 103.962 63.2205C103.962 61.9612 103.784 60.8698 103.43 59.9463C103.075 59.0134 102.562 58.2905 101.891 57.7774C101.219 57.2644 100.403 57.0079 99.442 57.0079C98.4625 57.0079 97.637 57.2737 96.9654 57.8054C96.2937 58.3278 95.7853 59.0554 95.4402 59.9882C95.095 60.9211 94.9225 61.9985 94.9225 63.2205C94.9225 64.4612 95.095 65.5339 95.4402 66.4387C95.7947 67.3343 96.303 68.0292 96.9654 68.5236C97.637 69.0087 98.4625 69.2512 99.442 69.2512ZM128.35 64.8856V52.5443H134.311V74.0366H128.588V70.1327H128.364C127.879 71.3921 127.072 72.4042 125.944 73.1691C124.824 73.934 123.458 74.3165 121.844 74.3165C120.407 74.3165 119.143 73.99 118.052 73.337C116.96 72.684 116.107 71.7559 115.491 70.5525C114.885 69.3492 114.577 67.9079 114.568 66.2289V52.5443H120.529V65.1654C120.538 66.4341 120.878 67.4369 121.55 68.1738C122.222 68.9107 123.122 69.2792 124.251 69.2792C124.969 69.2792 125.64 69.116 126.265 68.7895C126.89 68.4537 127.394 67.9593 127.777 67.3063C128.168 66.6533 128.36 65.8464 128.35 64.8856ZM156.961 58.673L151.504 59.0088C151.411 58.5424 151.21 58.1226 150.903 57.7495C150.595 57.367 150.189 57.0638 149.685 56.84C149.191 56.6068 148.598 56.4901 147.908 56.4901C146.985 56.4901 146.206 56.686 145.571 57.0778C144.937 57.4603 144.62 57.9733 144.62 58.617C144.62 59.13 144.825 59.5638 145.236 59.9183C145.646 60.2728 146.35 60.5573 147.348 60.7718L151.238 61.5554C153.328 61.9845 154.886 62.6748 155.912 63.6263C156.938 64.5778 157.451 65.8277 157.451 67.3762C157.451 68.7848 157.036 70.0208 156.206 71.0842C155.385 72.1476 154.256 72.9779 152.82 73.5749C151.392 74.1626 149.746 74.4564 147.88 74.4564C145.035 74.4564 142.768 73.864 141.08 72.6794C139.401 71.4853 138.417 69.8622 138.127 67.81L143.99 67.5022C144.168 68.3697 144.597 69.032 145.278 69.4891C145.959 69.9368 146.831 70.1607 147.894 70.1607C148.939 70.1607 149.779 69.9602 150.413 69.5591C151.056 69.1486 151.383 68.6216 151.392 67.9779C151.383 67.4369 151.154 66.9938 150.707 66.6486C150.259 66.2942 149.569 66.0236 148.636 65.8371L144.914 65.0955C142.815 64.6757 141.252 63.9481 140.226 62.9127C139.21 61.8772 138.701 60.5573 138.701 58.9528C138.701 57.5722 139.074 56.3829 139.821 55.3847C140.576 54.3866 141.635 53.617 142.997 53.076C144.368 52.535 145.973 52.2644 147.81 52.2644C150.525 52.2644 152.661 52.8381 154.219 53.9855C155.786 55.1329 156.7 56.6954 156.961 58.673ZM172.636 52.5443V57.0219H159.693V52.5443H172.636ZM162.632 47.3951H168.592V67.4322C168.592 67.9826 168.676 68.4117 168.844 68.7195C169.012 69.018 169.245 69.2279 169.544 69.3492C169.852 69.4704 170.206 69.5311 170.607 69.5311C170.887 69.5311 171.167 69.5077 171.447 69.4611C171.727 69.4051 171.941 69.3632 172.091 69.3352L173.028 73.7708C172.73 73.864 172.31 73.9713 171.769 74.0926C171.228 74.2232 170.57 74.3025 169.796 74.3305C168.359 74.3864 167.1 74.1952 166.018 73.7568C164.945 73.3183 164.11 72.6374 163.513 71.7139C162.916 70.7904 162.622 69.6243 162.632 68.2158V47.3951Z" fill="black"/>
<path d="M715.15 69.3873L705.3 59.5367L715.15 49.686" stroke="black" stroke-width="3.28355" stroke-linecap="round" stroke-linejoin="round"/>
<path d="M770.971 69.3873L780.821 59.5367L770.971 49.686" stroke="black" stroke-width="3.28355" stroke-linecap="round" stroke-linejoin="round"/>
<path d="M59.0098 124.312H62.1861L66.4398 134.695H66.6077L70.8614 124.312H74.0376V138.641H71.547V128.797H71.4141L67.4542 138.599H65.5932L61.6334 128.776H61.5004V138.641H59.0098V124.312ZM91.2433 131.477C91.2433 133.02 90.9541 134.343 90.3757 135.443C89.802 136.539 89.0185 137.379 88.025 137.962C87.0362 138.545 85.9145 138.837 84.6598 138.837C83.4052 138.837 82.2811 138.545 81.2877 137.962C80.2989 137.374 79.5153 136.532 78.9369 135.436C78.3633 134.336 78.0764 133.016 78.0764 131.477C78.0764 129.933 78.3633 128.613 78.9369 127.517C79.5153 126.416 80.2989 125.574 81.2877 124.991C82.2811 124.408 83.4052 124.117 84.6598 124.117C85.9145 124.117 87.0362 124.408 88.025 124.991C89.0185 125.574 89.802 126.416 90.3757 127.517C90.9541 128.613 91.2433 129.933 91.2433 131.477ZM88.6337 131.477C88.6337 130.39 88.4634 129.473 88.123 128.727C87.7871 127.976 87.3207 127.409 86.7237 127.027C86.1267 126.64 85.4387 126.446 84.6598 126.446C83.8809 126.446 83.193 126.64 82.596 127.027C81.9989 127.409 81.5302 127.976 81.1897 128.727C80.8539 129.473 80.686 130.39 80.686 131.477C80.686 132.563 80.8539 133.482 81.1897 134.233C81.5302 134.979 81.9989 135.546 82.596 135.933C83.193 136.316 83.8809 136.507 84.6598 136.507C85.4387 136.507 86.1267 136.316 86.7237 135.933C87.3207 135.546 87.7871 134.979 88.123 134.233C88.4634 133.482 88.6337 132.563 88.6337 131.477ZM107.048 124.312V138.641H104.739L97.9878 128.881H97.8689V138.641H95.2733V124.312H97.596L104.34 134.079H104.466V124.312H107.048Z" fill="black"/>
<path d="M59.0098 124.312H62.1861L66.4398 134.695H66.6077L70.8614 124.312H74.0376V138.641H71.547V128.797H71.4141L67.4542 138.599H65.5932L61.6334 128.776H61.5004V138.641H59.0098V124.312ZM91.2433 131.477C91.2433 133.02 90.9541 134.343 90.3757 135.443C89.802 136.539 89.0185 137.379 88.025 137.962C87.0362 138.545 85.9145 138.837 84.6598 138.837C83.4052 138.837 82.2811 138.545 81.2877 137.962C80.2989 137.374 79.5153 136.532 78.9369 135.436C78.3633 134.336 78.0764 133.016 78.0764 131.477C78.0764 129.933 78.3633 128.613 78.9369 127.517C79.5153 126.416 80.2989 125.574 81.2877 124.991C82.2811 124.408 83.4052 124.117 84.6598 124.117C85.9145 124.117 87.0362 124.408 88.025 124.991C89.0185 125.574 89.802 126.416 90.3757 127.517C90.9541 128.613 91.2433 129.933 91.2433 131.477ZM88.6337 131.477C88.6337 130.39 88.4634 129.473 88.123 128.727C87.7871 127.976 87.3207 127.409 86.7237 127.027C86.1267 126.64 85.4387 126.446 84.6598 126.446C83.8809 126.446 83.193 126.64 82.596 127.027C81.9989 127.409 81.5302 127.976 81.1897 128.727C80.8539 129.473 80.686 130.39 80.686 131.477C80.686 132.563 80.8539 133.482 81.1897 134.233C81.5302 134.979 81.9989 135.546 82.596 135.933C83.193 136.316 83.8809 136.507 84.6598 136.507C85.4387 136.507 86.1267 136.316 86.7237 135.933C87.3207 135.546 87.7871 134.979 88.123 134.233C88.4634 133.482 88.6337 132.563 88.6337 131.477ZM107.048 124.312V138.641H104.739L97.9878 128.881H97.8689V138.641H95.2733V124.312H97.596L104.34 134.079H104.466V124.312H107.048Z" fill="white" fill-opacity="0.44"/>
<path d="M175.183 126.488V124.312H186.615V126.488H182.186V138.641H179.612V126.488H175.183ZM199.427 124.312H202.022V133.673C202.022 134.699 201.78 135.602 201.295 136.381C200.814 137.16 200.138 137.768 199.266 138.207C198.394 138.641 197.375 138.858 196.209 138.858C195.038 138.858 194.016 138.641 193.144 138.207C192.272 137.768 191.596 137.16 191.115 136.381C190.635 135.602 190.395 134.699 190.395 133.673V124.312H192.99V133.456C192.99 134.053 193.121 134.585 193.382 135.052C193.648 135.518 194.021 135.884 194.501 136.15C194.982 136.411 195.551 136.542 196.209 136.542C196.866 136.542 197.435 136.411 197.916 136.15C198.401 135.884 198.774 135.518 199.035 135.052C199.296 134.585 199.427 134.053 199.427 133.456V124.312ZM206.42 138.641V124.312H215.739V126.488H209.015V130.378H215.256V132.554H209.015V136.465H215.795V138.641H206.42Z" fill="black"/>
<path d="M175.183 126.488V124.312H186.615V126.488H182.186V138.641H179.612V126.488H175.183ZM199.427 124.312H202.022V133.673C202.022 134.699 201.78 135.602 201.295 136.381C200.814 137.16 200.138 137.768 199.266 138.207C198.394 138.641 197.375 138.858 196.209 138.858C195.038 138.858 194.016 138.641 193.144 138.207C192.272 137.768 191.596 137.16 191.115 136.381C190.635 135.602 190.395 134.699 190.395 133.673V124.312H192.99V133.456C192.99 134.053 193.121 134.585 193.382 135.052C193.648 135.518 194.021 135.884 194.501 136.15C194.982 136.411 195.551 136.542 196.209 136.542C196.866 136.542 197.435 136.411 197.916 136.15C198.401 135.884 198.774 135.518 199.035 135.052C199.296 134.585 199.427 134.053 199.427 133.456V124.312ZM206.42 138.641V124.312H215.739V126.488H209.015V130.378H215.256V132.554H209.015V136.465H215.795V138.641H206.42Z" fill="white" fill-opacity="0.44"/>
<path d="M288.156 138.641L284.113 124.312H286.904L289.486 134.842H289.619L292.375 124.312H294.915L297.678 134.849H297.804L300.386 124.312H303.177L299.133 138.641H296.573L293.704 128.587H293.592L290.717 138.641H288.156ZM306.553 138.641V124.312H315.872V126.488H309.149V130.378H315.389V132.554H309.149V136.465H315.928V138.641H306.553ZM324.952 138.641H320.096V124.312H325.05C326.472 124.312 327.694 124.599 328.716 125.173C329.742 125.742 330.53 126.561 331.08 127.629C331.631 128.697 331.906 129.975 331.906 131.463C331.906 132.955 331.628 134.238 331.073 135.31C330.523 136.383 329.728 137.206 328.688 137.78C327.652 138.354 326.407 138.641 324.952 138.641ZM322.692 136.395H324.826C325.824 136.395 326.656 136.213 327.323 135.849C327.99 135.481 328.492 134.933 328.828 134.205C329.163 133.473 329.331 132.559 329.331 131.463C329.331 130.366 329.163 129.457 328.828 128.734C328.492 128.006 327.995 127.463 327.337 127.104C326.684 126.74 325.873 126.558 324.903 126.558H322.692V136.395Z" fill="black"/>
<path d="M288.156 138.641L284.113 124.312H286.904L289.486 134.842H289.619L292.375 124.312H294.915L297.678 134.849H297.804L300.386 124.312H303.177L299.133 138.641H296.573L293.704 128.587H293.592L290.717 138.641H288.156ZM306.553 138.641V124.312H315.872V126.488H309.149V130.378H315.389V132.554H309.149V136.465H315.928V138.641H306.553ZM324.952 138.641H320.096V124.312H325.05C326.472 124.312 327.694 124.599 328.716 125.173C329.742 125.742 330.53 126.561 331.08 127.629C331.631 128.697 331.906 129.975 331.906 131.463C331.906 132.955 331.628 134.238 331.073 135.31C330.523 136.383 329.728 137.206 328.688 137.78C327.652 138.354 326.407 138.641 324.952 138.641ZM322.692 136.395H324.826C325.824 136.395 326.656 136.213 327.323 135.849C327.99 135.481 328.492 134.933 328.828 134.205C329.163 133.473 329.331 132.559 329.331 131.463C329.331 130.366 329.163 129.457 328.828 128.734C328.492 128.006 327.995 127.463 327.337 127.104C326.684 126.74 325.873 126.558 324.903 126.558H322.692V136.395Z" fill="white" fill-opacity="0.44"/>
<path d="M399.15 126.488V124.312H410.582V126.488H406.153V138.641H403.578V126.488H399.15ZM414.362 138.641V124.312H416.957V130.378H423.597V124.312H426.199V138.641H423.597V132.554H416.957V138.641H414.362ZM439.63 124.312H442.226V133.673C442.226 134.699 441.983 135.602 441.498 136.381C441.018 137.16 440.342 137.768 439.469 138.207C438.597 138.641 437.578 138.858 436.412 138.858C435.241 138.858 434.22 138.641 433.348 138.207C432.475 137.768 431.799 137.16 431.319 136.381C430.838 135.602 430.598 134.699 430.598 133.673V124.312H433.194V133.456C433.194 134.053 433.324 134.585 433.586 135.052C433.851 135.518 434.225 135.884 434.705 136.15C435.185 136.411 435.754 136.542 436.412 136.542C437.07 136.542 437.639 136.411 438.119 136.15C438.604 135.884 438.977 135.518 439.238 135.052C439.5 134.585 439.63 134.053 439.63 133.456V124.312Z" fill="black"/>
<path d="M399.15 126.488V124.312H410.582V126.488H406.153V138.641H403.578V126.488H399.15ZM414.362 138.641V124.312H416.957V130.378H423.597V124.312H426.199V138.641H423.597V132.554H416.957V138.641H414.362ZM439.63 124.312H442.226V133.673C442.226 134.699 441.983 135.602 441.498 136.381C441.018 137.16 440.342 137.768 439.469 138.207C438.597 138.641 437.578 138.858 436.412 138.858C435.241 138.858 434.22 138.641 433.348 138.207C432.475 137.768 431.799 137.16 431.319 136.381C430.838 135.602 430.598 134.699 430.598 133.673V124.312H433.194V133.456C433.194 134.053 433.324 134.585 433.586 135.052C433.851 135.518 434.225 135.884 434.705 136.15C435.185 136.411 435.754 136.542 436.412 136.542C437.07 136.542 437.639 136.411 438.119 136.15C438.604 135.884 438.977 135.518 439.238 135.052C439.5 134.585 439.63 134.053 439.63 133.456V124.312Z" fill="white" fill-opacity="0.44"/>
<path d="M518.612 138.641V124.312H527.791V126.488H521.208V130.378H527.161V132.554H521.208V138.641H518.612ZM531.732 138.641V124.312H537.105C538.206 124.312 539.129 124.504 539.876 124.886C540.626 125.269 541.193 125.805 541.576 126.495C541.963 127.181 542.156 127.981 542.156 128.895C542.156 129.814 541.96 130.611 541.569 131.288C541.181 131.959 540.61 132.479 539.855 132.848C539.099 133.212 538.171 133.393 537.07 133.393H533.243V131.239H536.72C537.364 131.239 537.891 131.15 538.301 130.973C538.712 130.791 539.015 130.527 539.211 130.182C539.411 129.832 539.512 129.403 539.512 128.895C539.512 128.387 539.411 127.953 539.211 127.594C539.01 127.23 538.705 126.955 538.294 126.768C537.884 126.577 537.355 126.481 536.706 126.481H534.328V138.641H531.732ZM539.134 132.148L542.681 138.641H539.785L536.3 132.148H539.134ZM548.717 124.312V138.641H546.122V124.312H548.717Z" fill="black"/>
<path d="M518.612 138.641V124.312H527.791V126.488H521.208V130.378H527.161V132.554H521.208V138.641H518.612ZM531.732 138.641V124.312H537.105C538.206 124.312 539.129 124.504 539.876 124.886C540.626 125.269 541.193 125.805 541.576 126.495C541.963 127.181 542.156 127.981 542.156 128.895C542.156 129.814 541.96 130.611 541.569 131.288C541.181 131.959 540.61 132.479 539.855 132.848C539.099 133.212 538.171 133.393 537.07 133.393H533.243V131.239H536.72C537.364 131.239 537.891 131.15 538.301 130.973C538.712 130.791 539.015 130.527 539.211 130.182C539.411 129.832 539.512 129.403 539.512 128.895C539.512 128.387 539.411 127.953 539.211 127.594C539.01 127.23 538.705 126.955 538.294 126.768C537.884 126.577 537.355 126.481 536.706 126.481H534.328V138.641H531.732ZM539.134 132.148L542.681 138.641H539.785L536.3 132.148H539.134ZM548.717 124.312V138.641H546.122V124.312H548.717Z" fill="white" fill-opacity="0.44"/>
<path d="M634.89 128.251C634.825 127.64 634.55 127.165 634.065 126.824C633.584 126.484 632.959 126.313 632.19 126.313C631.649 126.313 631.185 126.395 630.798 126.558C630.41 126.721 630.114 126.943 629.909 127.223C629.704 127.503 629.599 127.822 629.594 128.181C629.594 128.48 629.662 128.739 629.797 128.958C629.937 129.177 630.126 129.364 630.364 129.518C630.602 129.667 630.865 129.793 631.154 129.895C631.444 129.998 631.735 130.084 632.029 130.154L633.372 130.49C633.913 130.616 634.433 130.786 634.932 131.001C635.436 131.215 635.886 131.486 636.283 131.812C636.684 132.139 637.001 132.533 637.234 132.995C637.467 133.456 637.584 133.997 637.584 134.618C637.584 135.457 637.369 136.197 636.94 136.836C636.511 137.47 635.891 137.967 635.079 138.326C634.272 138.68 633.295 138.858 632.148 138.858C631.033 138.858 630.065 138.685 629.244 138.34C628.428 137.995 627.789 137.491 627.327 136.829C626.87 136.166 626.623 135.359 626.586 134.408H629.139C629.177 134.907 629.331 135.322 629.601 135.653C629.872 135.984 630.224 136.232 630.658 136.395C631.096 136.558 631.586 136.64 632.127 136.64C632.691 136.64 633.186 136.556 633.61 136.388C634.039 136.215 634.375 135.977 634.617 135.674C634.86 135.366 634.984 135.007 634.988 134.597C634.984 134.224 634.874 133.916 634.659 133.673C634.445 133.426 634.144 133.221 633.757 133.058C633.374 132.89 632.927 132.74 632.414 132.61L630.784 132.19C629.604 131.887 628.671 131.428 627.985 130.812C627.304 130.192 626.964 129.368 626.964 128.342C626.964 127.498 627.192 126.759 627.649 126.124C628.111 125.49 628.738 124.998 629.531 124.648C630.324 124.294 631.222 124.117 632.225 124.117C633.242 124.117 634.132 124.294 634.897 124.648C635.667 124.998 636.271 125.485 636.709 126.11C637.148 126.731 637.374 127.444 637.388 128.251H634.89ZM643.083 138.641H640.313L645.357 124.312H648.561L653.612 138.641H650.842L647.015 127.251H646.903L643.083 138.641ZM643.174 133.023H650.73V135.108H643.174V133.023ZM654.714 126.488V124.312H666.146V126.488H661.718V138.641H659.143V126.488H654.714Z" fill="black"/>
<path d="M634.89 128.251C634.825 127.64 634.55 127.165 634.065 126.824C633.584 126.484 632.959 126.313 632.19 126.313C631.649 126.313 631.185 126.395 630.798 126.558C630.41 126.721 630.114 126.943 629.909 127.223C629.704 127.503 629.599 127.822 629.594 128.181C629.594 128.48 629.662 128.739 629.797 128.958C629.937 129.177 630.126 129.364 630.364 129.518C630.602 129.667 630.865 129.793 631.154 129.895C631.444 129.998 631.735 130.084 632.029 130.154L633.372 130.49C633.913 130.616 634.433 130.786 634.932 131.001C635.436 131.215 635.886 131.486 636.283 131.812C636.684 132.139 637.001 132.533 637.234 132.995C637.467 133.456 637.584 133.997 637.584 134.618C637.584 135.457 637.369 136.197 636.94 136.836C636.511 137.47 635.891 137.967 635.079 138.326C634.272 138.68 633.295 138.858 632.148 138.858C631.033 138.858 630.065 138.685 629.244 138.34C628.428 137.995 627.789 137.491 627.327 136.829C626.87 136.166 626.623 135.359 626.586 134.408H629.139C629.177 134.907 629.331 135.322 629.601 135.653C629.872 135.984 630.224 136.232 630.658 136.395C631.096 136.558 631.586 136.64 632.127 136.64C632.691 136.64 633.186 136.556 633.61 136.388C634.039 136.215 634.375 135.977 634.617 135.674C634.86 135.366 634.984 135.007 634.988 134.597C634.984 134.224 634.874 133.916 634.659 133.673C634.445 133.426 634.144 133.221 633.757 133.058C633.374 132.89 632.927 132.74 632.414 132.61L630.784 132.19C629.604 131.887 628.671 131.428 627.985 130.812C627.304 130.192 626.964 129.368 626.964 128.342C626.964 127.498 627.192 126.759 627.649 126.124C628.111 125.49 628.738 124.998 629.531 124.648C630.324 124.294 631.222 124.117 632.225 124.117C633.242 124.117 634.132 124.294 634.897 124.648C635.667 124.998 636.271 125.485 636.709 126.11C637.148 126.731 637.374 127.444 637.388 128.251H634.89ZM643.083 138.641H640.313L645.357 124.312H648.561L653.612 138.641H650.842L647.015 127.251H646.903L643.083 138.641ZM643.174 133.023H650.73V135.108H643.174V133.023ZM654.714 126.488V124.312H666.146V126.488H661.718V138.641H659.143V126.488H654.714Z" fill="white" fill-opacity="0.44"/>
<path d="M745.671 128.251C745.606 127.64 745.331 127.165 744.846 126.824C744.365 126.484 743.74 126.313 742.971 126.313C742.43 126.313 741.966 126.395 741.578 126.558C741.191 126.721 740.895 126.943 740.69 127.223C740.485 127.503 740.38 127.822 740.375 128.181C740.375 128.48 740.443 128.739 740.578 128.958C740.718 129.177 740.907 129.364 741.145 129.518C741.383 129.667 741.646 129.793 741.935 129.895C742.224 129.998 742.516 130.084 742.81 130.154L744.153 130.49C744.694 130.616 745.214 130.786 745.713 131.001C746.217 131.215 746.667 131.486 747.064 131.812C747.465 132.139 747.782 132.533 748.015 132.995C748.248 133.456 748.365 133.997 748.365 134.618C748.365 135.457 748.15 136.197 747.721 136.836C747.292 137.47 746.672 137.967 745.86 138.326C745.053 138.68 744.076 138.858 742.929 138.858C741.814 138.858 740.846 138.685 740.025 138.34C739.209 137.995 738.57 137.491 738.108 136.829C737.651 136.166 737.404 135.359 737.367 134.408H739.92C739.958 134.907 740.112 135.322 740.382 135.653C740.653 135.984 741.005 136.232 741.439 136.395C741.877 136.558 742.367 136.64 742.908 136.64C743.472 136.64 743.967 136.556 744.391 136.388C744.82 136.215 745.156 135.977 745.398 135.674C745.641 135.366 745.765 135.007 745.769 134.597C745.765 134.224 745.655 133.916 745.44 133.673C745.226 133.426 744.925 133.221 744.538 133.058C744.155 132.89 743.708 132.74 743.195 132.61L741.565 132.19C740.384 131.887 739.452 131.428 738.766 130.812C738.085 130.192 737.745 129.368 737.745 128.342C737.745 127.498 737.973 126.759 738.43 126.124C738.892 125.49 739.519 124.998 740.312 124.648C741.105 124.294 742.003 124.117 743.006 124.117C744.023 124.117 744.913 124.294 745.678 124.648C746.448 124.998 747.052 125.485 747.49 126.11C747.929 126.731 748.155 127.444 748.169 128.251H745.671ZM761.287 124.312H763.883V133.673C763.883 134.699 763.64 135.602 763.155 136.381C762.675 137.16 761.998 137.768 761.126 138.207C760.254 138.641 759.235 138.858 758.069 138.858C756.898 138.858 755.877 138.641 755.004 138.207C754.132 137.768 753.456 137.16 752.976 136.381C752.495 135.602 752.255 134.699 752.255 133.673V124.312H754.851V133.456C754.851 134.053 754.981 134.585 755.242 135.052C755.508 135.518 755.881 135.884 756.362 136.15C756.842 136.411 757.411 136.542 758.069 136.542C758.726 136.542 759.295 136.411 759.776 136.15C760.261 135.884 760.634 135.518 760.895 135.052C761.156 134.585 761.287 134.053 761.287 133.456V124.312ZM780.055 124.312V138.641H777.746L770.994 128.881H770.876V138.641H768.28V124.312H770.603L777.347 134.079H777.473V124.312H780.055Z" fill="black"/>
<path d="M745.671 128.251C745.606 127.64 745.331 127.165 744.846 126.824C744.365 126.484 743.74 126.313 742.971 126.313C742.43 126.313 741.966 126.395 741.578 126.558C741.191 126.721 740.895 126.943 740.69 127.223C740.485 127.503 740.38 127.822 740.375 128.181C740.375 128.48 740.443 128.739 740.578 128.958C740.718 129.177 740.907 129.364 741.145 129.518C741.383 129.667 741.646 129.793 741.935 129.895C742.224 129.998 742.516 130.084 742.81 130.154L744.153 130.49C744.694 130.616 745.214 130.786 745.713 131.001C746.217 131.215 746.667 131.486 747.064 131.812C747.465 132.139 747.782 132.533 748.015 132.995C748.248 133.456 748.365 133.997 748.365 134.618C748.365 135.457 748.15 136.197 747.721 136.836C747.292 137.47 746.672 137.967 745.86 138.326C745.053 138.68 744.076 138.858 742.929 138.858C741.814 138.858 740.846 138.685 740.025 138.34C739.209 137.995 738.57 137.491 738.108 136.829C737.651 136.166 737.404 135.359 737.367 134.408H739.92C739.958 134.907 740.112 135.322 740.382 135.653C740.653 135.984 741.005 136.232 741.439 136.395C741.877 136.558 742.367 136.64 742.908 136.64C743.472 136.64 743.967 136.556 744.391 136.388C744.82 136.215 745.156 135.977 745.398 135.674C745.641 135.366 745.765 135.007 745.769 134.597C745.765 134.224 745.655 133.916 745.44 133.673C745.226 133.426 744.925 133.221 744.538 133.058C744.155 132.89 743.708 132.74 743.195 132.61L741.565 132.19C740.384 131.887 739.452 131.428 738.766 130.812C738.085 130.192 737.745 129.368 737.745 128.342C737.745 127.498 737.973 126.759 738.43 126.124C738.892 125.49 739.519 124.998 740.312 124.648C741.105 124.294 742.003 124.117 743.006 124.117C744.023 124.117 744.913 124.294 745.678 124.648C746.448 124.998 747.052 125.485 747.49 126.11C747.929 126.731 748.155 127.444 748.169 128.251H745.671ZM761.287 124.312H763.883V133.673C763.883 134.699 763.64 135.602 763.155 136.381C762.675 137.16 761.998 137.768 761.126 138.207C760.254 138.641 759.235 138.858 758.069 138.858C756.898 138.858 755.877 138.641 755.004 138.207C754.132 137.768 753.456 137.16 752.976 136.381C752.495 135.602 752.255 134.699 752.255 133.673V124.312H754.851V133.456C754.851 134.053 754.981 134.585 755.242 135.052C755.508 135.518 755.881 135.884 756.362 136.15C756.842 136.411 757.411 136.542 758.069 136.542C758.726 136.542 759.295 136.411 759.776 136.15C760.261 135.884 760.634 135.518 760.895 135.052C761.156 134.585 761.287 134.053 761.287 133.456V124.312ZM780.055 124.312V138.641H777.746L770.994 128.881H770.876V138.641H768.28V124.312H770.603L777.347 134.079H777.473V124.312H780.055Z" fill="white" fill-opacity="0.44"/>
<g clip-path="url(#clip0_718_11611)">
<rect x="33.2684" y="158.043" width="110.78" height="65.7377" rx="13.1342" fill="#BF8ED2"/>
<path d="M80.465 200.439C79.2337 200.439 78.1361 200.227 77.1721 199.805C76.2144 199.382 75.4526 198.794 74.8867 198.042C74.327 197.283 74.0223 196.403 73.9725 195.402H76.3233C76.373 196.017 76.5845 196.549 76.9576 196.997C77.3307 197.438 77.8189 197.78 78.4221 198.023C79.0254 198.265 79.6939 198.387 80.4277 198.387C81.2486 198.387 81.9762 198.244 82.6105 197.958C83.2448 197.672 83.7424 197.274 84.103 196.764C84.4637 196.254 84.6441 195.663 84.6441 194.991C84.6441 194.288 84.47 193.67 84.1217 193.135C83.7734 192.594 83.2635 192.171 82.5919 191.866C81.9202 191.562 81.0993 191.409 80.1292 191.409H78.5994V189.357H80.1292C80.8879 189.357 81.5533 189.22 82.1255 188.946C82.7038 188.673 83.1547 188.287 83.4781 187.79C83.8077 187.292 83.9725 186.708 83.9725 186.036C83.9725 185.389 83.8294 184.827 83.5434 184.348C83.2573 183.869 82.8531 183.496 82.3307 183.228C81.8145 182.961 81.2051 182.827 80.5023 182.827C79.8431 182.827 79.2213 182.948 78.6367 183.191C78.0583 183.427 77.5857 183.772 77.2188 184.226C76.8519 184.674 76.6529 185.215 76.6218 185.85H74.383C74.4203 184.848 74.7219 183.971 75.2878 183.219C75.8537 182.46 76.5938 181.869 77.508 181.447C78.4284 181.024 79.4389 180.812 80.5396 180.812C81.7212 180.812 82.7349 181.052 83.5807 181.531C84.4264 182.003 85.0763 182.628 85.5303 183.406C85.9842 184.183 86.2112 185.022 86.2112 185.924C86.2112 187 85.9283 187.917 85.3624 188.676C84.8027 189.435 84.0409 189.96 83.0769 190.252V190.402C84.2834 190.601 85.2255 191.114 85.9034 191.941C86.5813 192.762 86.9202 193.779 86.9202 194.991C86.9202 196.03 86.6372 196.963 86.0713 197.79C85.5116 198.611 84.7467 199.257 83.7766 199.73C82.8064 200.203 81.7026 200.439 80.465 200.439ZM96.9667 200.439C95.5613 200.439 94.3641 200.056 93.3753 199.292C92.3866 198.52 91.631 197.404 91.1086 195.943C90.5862 194.475 90.325 192.703 90.325 190.626C90.325 188.561 90.5862 186.798 91.1086 185.336C91.6372 183.869 92.3959 182.749 93.3847 181.978C94.3797 181.201 95.5737 180.812 96.9667 180.812C98.3598 180.812 99.5507 181.201 100.539 181.978C101.534 182.749 102.293 183.869 102.816 185.336C103.344 186.798 103.608 188.561 103.608 190.626C103.608 192.703 103.347 194.475 102.825 195.943C102.303 197.404 101.547 198.52 100.558 199.292C99.5693 200.056 98.3722 200.439 96.9667 200.439ZM96.9667 198.387C98.3598 198.387 99.4418 197.715 100.213 196.372C100.984 195.029 101.37 193.113 101.37 190.626C101.37 188.971 101.192 187.563 100.838 186.4C100.49 185.237 99.986 184.351 99.3268 183.741C98.6738 183.132 97.8871 182.827 96.9667 182.827C95.5861 182.827 94.5072 183.508 93.7298 184.87C92.9525 186.226 92.5638 188.144 92.5638 190.626C92.5638 192.28 92.7379 193.685 93.0862 194.842C93.4344 195.999 93.935 196.879 94.588 197.482C95.2472 198.085 96.0401 198.387 96.9667 198.387Z" fill="black"/>
<path d="M80.465 200.439C79.2337 200.439 78.1361 200.227 77.1721 199.805C76.2144 199.382 75.4526 198.794 74.8867 198.042C74.327 197.283 74.0223 196.403 73.9725 195.402H76.3233C76.373 196.017 76.5845 196.549 76.9576 196.997C77.3307 197.438 77.8189 197.78 78.4221 198.023C79.0254 198.265 79.6939 198.387 80.4277 198.387C81.2486 198.387 81.9762 198.244 82.6105 197.958C83.2448 197.672 83.7424 197.274 84.103 196.764C84.4637 196.254 84.6441 195.663 84.6441 194.991C84.6441 194.288 84.47 193.67 84.1217 193.135C83.7734 192.594 83.2635 192.171 82.5919 191.866C81.9202 191.562 81.0993 191.409 80.1292 191.409H78.5994V189.357H80.1292C80.8879 189.357 81.5533 189.22 82.1255 188.946C82.7038 188.673 83.1547 188.287 83.4781 187.79C83.8077 187.292 83.9725 186.708 83.9725 186.036C83.9725 185.389 83.8294 184.827 83.5434 184.348C83.2573 183.869 82.8531 183.496 82.3307 183.228C81.8145 182.961 81.2051 182.827 80.5023 182.827C79.8431 182.827 79.2213 182.948 78.6367 183.191C78.0583 183.427 77.5857 183.772 77.2188 184.226C76.8519 184.674 76.6529 185.215 76.6218 185.85H74.383C74.4203 184.848 74.7219 183.971 75.2878 183.219C75.8537 182.46 76.5938 181.869 77.508 181.447C78.4284 181.024 79.4389 180.812 80.5396 180.812C81.7212 180.812 82.7349 181.052 83.5807 181.531C84.4264 182.003 85.0763 182.628 85.5303 183.406C85.9842 184.183 86.2112 185.022 86.2112 185.924C86.2112 187 85.9283 187.917 85.3624 188.676C84.8027 189.435 84.0409 189.96 83.0769 190.252V190.402C84.2834 190.601 85.2255 191.114 85.9034 191.941C86.5813 192.762 86.9202 193.779 86.9202 194.991C86.9202 196.03 86.6372 196.963 86.0713 197.79C85.5116 198.611 84.7467 199.257 83.7766 199.73C82.8064 200.203 81.7026 200.439 80.465 200.439ZM96.9667 200.439C95.5613 200.439 94.3641 200.056 93.3753 199.292C92.3866 198.52 91.631 197.404 91.1086 195.943C90.5862 194.475 90.325 192.703 90.325 190.626C90.325 188.561 90.5862 186.798 91.1086 185.336C91.6372 183.869 92.3959 182.749 93.3847 181.978C94.3797 181.201 95.5737 180.812 96.9667 180.812C98.3598 180.812 99.5507 181.201 100.539 181.978C101.534 182.749 102.293 183.869 102.816 185.336C103.344 186.798 103.608 188.561 103.608 190.626C103.608 192.703 103.347 194.475 102.825 195.943C102.303 197.404 101.547 198.52 100.558 199.292C99.5693 200.056 98.3722 200.439 96.9667 200.439ZM96.9667 198.387C98.3598 198.387 99.4418 197.715 100.213 196.372C100.984 195.029 101.37 193.113 101.37 190.626C101.37 188.971 101.192 187.563 100.838 186.4C100.49 185.237 99.986 184.351 99.3268 183.741C98.6738 183.132 97.8871 182.827 96.9667 182.827C95.5861 182.827 94.5072 183.508 93.7298 184.87C92.9525 186.226 92.5638 188.144 92.5638 190.626C92.5638 192.28 92.7379 193.685 93.0862 194.842C93.4344 195.999 93.935 196.879 94.588 197.482C95.2472 198.085 96.0401 198.387 96.9667 198.387Z" fill="white" fill-opacity="0.72"/>
</g>
<g clip-path="url(#clip1_718_11611)">
<rect x="144.049" y="158.043" width="110.78" height="65.7377" rx="13.1342" fill="#BF8ED2"/>
<path d="M201.973 181.073V200.178H199.66V183.499H199.548L194.883 186.596V184.245L199.66 181.073H201.973Z" fill="black"/>
</g>
<g clip-path="url(#clip2_718_11611)">
<rect x="254.829" y="158.043" width="110.78" height="65.7377" rx="13.1342" fill="#BF8ED2"/>
<path d="M304.19 200.178V198.499L310.496 191.596C311.236 190.787 311.845 190.085 312.324 189.488C312.803 188.884 313.158 188.318 313.388 187.79C313.624 187.255 313.742 186.695 313.742 186.111C313.742 185.439 313.581 184.858 313.257 184.366C312.94 183.875 312.505 183.496 311.951 183.228C311.398 182.961 310.776 182.827 310.086 182.827C309.352 182.827 308.711 182.98 308.164 183.284C307.623 183.583 307.203 184.003 306.905 184.544C306.612 185.085 306.466 185.719 306.466 186.447H304.265C304.265 185.327 304.523 184.345 305.039 183.499C305.555 182.653 306.258 181.994 307.147 181.521C308.043 181.049 309.047 180.812 310.16 180.812C311.28 180.812 312.271 181.049 313.136 181.521C314 181.994 314.678 182.631 315.169 183.433C315.661 184.236 315.906 185.128 315.906 186.111C315.906 186.813 315.779 187.501 315.524 188.172C315.275 188.838 314.84 189.581 314.218 190.402C313.602 191.216 312.747 192.211 311.653 193.387L307.362 197.976V198.126H316.242V200.178H304.19Z" fill="black"/>
</g>
<g clip-path="url(#clip3_718_11611)">
<rect x="365.61" y="158.043" width="110.78" height="65.7377" rx="13.1342" fill="#BF8ED2"/>
<path d="M421.015 200.439C419.784 200.439 418.686 200.227 417.722 199.805C416.765 199.382 416.003 198.794 415.437 198.042C414.877 197.283 414.573 196.403 414.523 195.402H416.874C416.923 196.017 417.135 196.549 417.508 196.997C417.881 197.438 418.369 197.78 418.972 198.023C419.576 198.265 420.244 198.387 420.978 198.387C421.799 198.387 422.527 198.244 423.161 197.958C423.795 197.672 424.293 197.274 424.653 196.764C425.014 196.254 425.194 195.663 425.194 194.991C425.194 194.288 425.02 193.67 424.672 193.135C424.324 192.594 423.814 192.171 423.142 191.866C422.471 191.562 421.65 191.409 420.68 191.409H419.15V189.357H420.68C421.438 189.357 422.104 189.22 422.676 188.946C423.254 188.673 423.705 188.287 424.028 187.79C424.358 187.292 424.523 186.708 424.523 186.036C424.523 185.389 424.38 184.827 424.094 184.348C423.808 183.869 423.403 183.496 422.881 183.228C422.365 182.961 421.755 182.827 421.053 182.827C420.393 182.827 419.772 182.948 419.187 183.191C418.609 183.427 418.136 183.772 417.769 184.226C417.402 184.674 417.203 185.215 417.172 185.85H414.933C414.971 184.848 415.272 183.971 415.838 183.219C416.404 182.46 417.144 181.869 418.058 181.447C418.979 181.024 419.989 180.812 421.09 180.812C422.272 180.812 423.285 181.052 424.131 181.531C424.977 182.003 425.627 182.628 426.081 183.406C426.535 184.183 426.762 185.022 426.762 185.924C426.762 187 426.479 187.917 425.913 188.676C425.353 189.435 424.591 189.96 423.627 190.252V190.402C424.834 190.601 425.776 191.114 426.454 191.941C427.132 192.762 427.47 193.779 427.47 194.991C427.47 196.03 427.188 196.963 426.622 197.79C426.062 198.611 425.297 199.257 424.327 199.73C423.357 200.203 422.253 200.439 421.015 200.439Z" fill="black"/>
</g>
<rect x="476.39" y="158.043" width="110.78" height="65.7377" rx="13.1342" fill="#BF8ED2"/>
<path d="M524.829 196.26V194.357L533.224 181.073H534.605V184.021H533.672L527.329 194.058V194.208H538.635V196.26H524.829ZM533.821 200.178V195.682V194.795V181.073H536.023V200.178H533.821Z" fill="black"/>
<rect x="587.171" y="158.043" width="110.78" height="65.7377" rx="13.1342" fill="#BF8ED2"/>
<path d="M642.463 200.439C641.369 200.439 640.383 200.221 639.506 199.786C638.629 199.351 637.926 198.754 637.398 197.995C636.869 197.236 636.58 196.372 636.53 195.402H638.769C638.856 196.266 639.248 196.981 639.945 197.547C640.647 198.107 641.487 198.387 642.463 198.387C643.247 198.387 643.943 198.203 644.553 197.836C645.168 197.469 645.65 196.966 645.999 196.325C646.353 195.678 646.53 194.948 646.53 194.133C646.53 193.3 646.347 192.557 645.98 191.904C645.619 191.244 645.122 190.725 644.487 190.346C643.853 189.966 643.129 189.774 642.314 189.767C641.729 189.761 641.129 189.851 640.514 190.038C639.898 190.218 639.391 190.451 638.993 190.738L636.829 190.476L637.986 181.073H647.911V183.126H639.926L639.254 188.76H639.366C639.758 188.449 640.249 188.191 640.84 187.986C641.431 187.78 642.046 187.678 642.687 187.678C643.856 187.678 644.898 187.958 645.812 188.517C646.732 189.071 647.454 189.83 647.976 190.793C648.505 191.757 648.769 192.858 648.769 194.096C648.769 195.315 648.495 196.403 647.948 197.361C647.407 198.312 646.661 199.065 645.709 199.618C644.758 200.165 643.676 200.439 642.463 200.439Z" fill="black"/>
<rect x="697.951" y="158.043" width="110.78" height="65.7377" rx="13.1342" fill="#BF8ED2"/>
<path d="M753.411 200.439C752.628 200.426 751.844 200.277 751.061 199.991C750.277 199.705 749.562 199.223 748.915 198.545C748.268 197.861 747.749 196.938 747.357 195.775C746.966 194.606 746.77 193.138 746.77 191.372C746.77 189.68 746.928 188.182 747.245 186.876C747.563 185.563 748.023 184.46 748.626 183.564C749.229 182.662 749.957 181.978 750.809 181.512C751.667 181.045 752.634 180.812 753.71 180.812C754.78 180.812 755.731 181.027 756.564 181.456C757.404 181.879 758.088 182.47 758.617 183.228C759.145 183.987 759.487 184.861 759.643 185.85H757.367C757.155 184.991 756.745 184.279 756.135 183.713C755.526 183.147 754.717 182.864 753.71 182.864C752.23 182.864 751.064 183.508 750.212 184.795C749.366 186.083 748.94 187.889 748.934 190.215H749.083C749.431 189.687 749.845 189.236 750.324 188.863C750.809 188.483 751.344 188.191 751.928 187.986C752.513 187.78 753.132 187.678 753.785 187.678C754.879 187.678 755.88 187.951 756.788 188.499C757.696 189.04 758.424 189.789 758.971 190.747C759.518 191.698 759.792 192.79 759.792 194.021C759.792 195.203 759.528 196.285 758.999 197.267C758.47 198.244 757.727 199.021 756.77 199.599C755.818 200.172 754.699 200.451 753.411 200.439ZM753.411 198.387C754.195 198.387 754.898 198.191 755.52 197.799C756.148 197.407 756.642 196.882 757.003 196.223C757.37 195.563 757.553 194.83 757.553 194.021C757.553 193.231 757.376 192.513 757.021 191.866C756.673 191.213 756.191 190.694 755.576 190.308C754.966 189.923 754.27 189.73 753.486 189.73C752.895 189.73 752.345 189.848 751.835 190.085C751.325 190.315 750.877 190.632 750.492 191.036C750.112 191.44 749.814 191.904 749.596 192.426C749.379 192.942 749.27 193.486 749.27 194.058C749.27 194.817 749.447 195.526 749.801 196.185C750.162 196.844 750.653 197.376 751.275 197.78C751.903 198.185 752.615 198.387 753.411 198.387Z" fill="black"/>
<g clip-path="url(#clip4_718_11611)">
<rect x="33.2684" y="223.781" width="110.78" height="65.7377" rx="13.1342" fill="#BF8ED2"/>
<path d="M83.6751 265.916L92.2198 249.013V248.863H82.3692V246.811H94.6078V248.975L86.1005 265.916H83.6751Z" fill="black"/>
</g>
<g clip-path="url(#clip5_718_11611)">
<rect x="144.049" y="223.781" width="110.78" height="65.7377" rx="13.1342" fill="#BF8ED2"/>
<path d="M199.388 266.177C198.107 266.177 196.975 265.95 195.992 265.496C195.016 265.036 194.254 264.404 193.707 263.602C193.16 262.794 192.889 261.873 192.895 260.841C192.889 260.032 193.048 259.286 193.371 258.602C193.694 257.912 194.136 257.337 194.696 256.876C195.262 256.41 195.893 256.115 196.589 255.99V255.878C195.675 255.642 194.948 255.129 194.407 254.339C193.865 253.543 193.598 252.638 193.604 251.625C193.598 250.654 193.844 249.787 194.341 249.022C194.839 248.257 195.523 247.654 196.393 247.212C197.27 246.771 198.268 246.55 199.388 246.55C200.495 246.55 201.484 246.771 202.354 247.212C203.225 247.654 203.909 248.257 204.406 249.022C204.91 249.787 205.165 250.654 205.171 251.625C205.165 252.638 204.888 253.543 204.341 254.339C203.8 255.129 203.082 255.642 202.186 255.878V255.99C202.877 256.115 203.498 256.41 204.052 256.876C204.605 257.337 205.047 257.912 205.377 258.602C205.706 259.286 205.874 260.032 205.88 260.841C205.874 261.873 205.594 262.794 205.041 263.602C204.494 264.404 203.732 265.036 202.755 265.496C201.785 265.95 200.663 266.177 199.388 266.177ZM199.388 264.124C200.252 264.124 200.999 263.985 201.627 263.705C202.255 263.425 202.74 263.03 203.082 262.52C203.424 262.01 203.598 261.413 203.604 260.729C203.598 260.008 203.411 259.37 203.045 258.817C202.678 258.263 202.177 257.828 201.543 257.511C200.915 257.194 200.196 257.035 199.388 257.035C198.573 257.035 197.846 257.194 197.205 257.511C196.571 257.828 196.07 258.263 195.703 258.817C195.342 259.37 195.165 260.008 195.171 260.729C195.165 261.413 195.33 262.01 195.666 262.52C196.008 263.03 196.496 263.425 197.13 263.705C197.765 263.985 198.517 264.124 199.388 264.124ZM199.388 255.057C200.072 255.057 200.678 254.921 201.207 254.647C201.742 254.373 202.161 253.991 202.466 253.5C202.771 253.008 202.926 252.433 202.933 251.774C202.926 251.127 202.774 250.564 202.475 250.085C202.177 249.6 201.763 249.227 201.235 248.966C200.706 248.699 200.091 248.565 199.388 248.565C198.673 248.565 198.048 248.699 197.513 248.966C196.978 249.227 196.564 249.6 196.272 250.085C195.98 250.564 195.837 251.127 195.843 251.774C195.837 252.433 195.983 253.008 196.282 253.5C196.586 253.991 197.006 254.373 197.541 254.647C198.076 254.921 198.691 255.057 199.388 255.057Z" fill="black"/>
</g>
<g clip-path="url(#clip6_718_11611)">
<rect x="254.829" y="223.781" width="110.78" height="65.7377" rx="13.1342" fill="#BF8ED2"/>
<path d="M310.028 246.55C310.812 246.556 311.596 246.706 312.379 246.998C313.163 247.29 313.878 247.775 314.525 248.453C315.171 249.125 315.691 250.042 316.082 251.205C316.474 252.368 316.67 253.826 316.67 255.58C316.67 257.278 316.508 258.786 316.185 260.104C315.868 261.416 315.408 262.523 314.805 263.425C314.207 264.327 313.48 265.011 312.622 265.477C311.77 265.944 310.806 266.177 309.73 266.177C308.66 266.177 307.706 265.965 306.866 265.542C306.033 265.113 305.349 264.519 304.814 263.761C304.285 262.996 303.946 262.11 303.797 261.102H306.073C306.278 261.979 306.686 262.703 307.295 263.276C307.911 263.842 308.722 264.124 309.73 264.124C311.204 264.124 312.367 263.481 313.219 262.194C314.077 260.906 314.506 259.087 314.506 256.737H314.357C314.008 257.259 313.595 257.71 313.116 258.089C312.637 258.468 312.106 258.761 311.521 258.966C310.936 259.171 310.314 259.274 309.655 259.274C308.561 259.274 307.556 259.003 306.642 258.462C305.734 257.915 305.007 257.166 304.459 256.214C303.918 255.256 303.648 254.162 303.648 252.931C303.648 251.761 303.909 250.692 304.431 249.722C304.96 248.745 305.7 247.968 306.652 247.39C307.609 246.811 308.735 246.531 310.028 246.55ZM310.028 248.602C309.245 248.602 308.539 248.798 307.911 249.19C307.289 249.576 306.795 250.098 306.428 250.757C306.067 251.41 305.887 252.135 305.887 252.931C305.887 253.727 306.061 254.451 306.409 255.104C306.764 255.751 307.245 256.267 307.855 256.653C308.471 257.032 309.17 257.222 309.954 257.222C310.545 257.222 311.095 257.107 311.605 256.876C312.115 256.64 312.559 256.32 312.939 255.916C313.324 255.505 313.626 255.042 313.844 254.526C314.061 254.003 314.17 253.459 314.17 252.893C314.17 252.147 313.99 251.447 313.629 250.794C313.275 250.141 312.783 249.613 312.155 249.209C311.533 248.804 310.824 248.602 310.028 248.602Z" fill="black"/>
</g>
<g clip-path="url(#clip7_718_11611)">
<rect x="365.61" y="223.781" width="110.78" height="65.7377" rx="13.1342" fill="#BF8ED2"/>
<path d="M415.325 246.811V265.916H413.012V249.237H412.9L408.236 252.334V249.983L413.012 246.811H415.325ZM427.051 266.177C425.645 266.177 424.448 265.794 423.459 265.029C422.471 264.258 421.715 263.142 421.193 261.68C420.67 260.213 420.409 258.44 420.409 256.363C420.409 254.299 420.67 252.536 421.193 251.074C421.721 249.607 422.48 248.487 423.469 247.716C424.464 246.939 425.658 246.55 427.051 246.55C428.444 246.55 429.635 246.939 430.623 247.716C431.618 248.487 432.377 249.607 432.9 251.074C433.428 252.536 433.692 254.299 433.692 256.363C433.692 258.44 433.431 260.213 432.909 261.68C432.386 263.142 431.631 264.258 430.642 265.029C429.653 265.794 428.456 266.177 427.051 266.177ZM427.051 264.124C428.444 264.124 429.526 263.453 430.297 262.11C431.068 260.766 431.454 258.851 431.454 256.363C431.454 254.709 431.276 253.301 430.922 252.138C430.574 250.975 430.07 250.089 429.411 249.479C428.758 248.87 427.971 248.565 427.051 248.565C425.67 248.565 424.591 249.246 423.814 250.608C423.036 251.964 422.648 253.882 422.648 256.363C422.648 258.018 422.822 259.423 423.17 260.58C423.518 261.736 424.019 262.616 424.672 263.22C425.331 263.823 426.124 264.124 427.051 264.124Z" fill="black"/>
</g>
<rect x="476.39" y="223.781" width="110.78" height="65.7377" rx="13.1342" fill="#BF8ED2"/>
<path d="M528.209 246.811V265.916H525.896V249.237H525.784L521.12 252.334V249.983L525.896 246.811H528.209ZM540.42 246.811V265.916H538.106V249.237H537.994L533.33 252.334V249.983L538.106 246.811H540.42Z" fill="black"/>
<rect x="587.171" y="223.781" width="110.78" height="65.7377" rx="13.1342" fill="#BF8ED2"/>
<path d="M637.143 246.811V265.916H634.829V249.237H634.717L630.053 252.334V249.983L634.829 246.811H637.143ZM642.637 265.916V264.236L648.943 257.334C649.683 256.525 650.292 255.822 650.771 255.225C651.25 254.622 651.604 254.056 651.835 253.528C652.071 252.993 652.189 252.433 652.189 251.848C652.189 251.177 652.027 250.595 651.704 250.104C651.387 249.613 650.951 249.233 650.398 248.966C649.845 248.699 649.223 248.565 648.532 248.565C647.799 248.565 647.158 248.717 646.611 249.022C646.07 249.321 645.65 249.74 645.351 250.281C645.059 250.822 644.913 251.457 644.913 252.184H642.712C642.712 251.065 642.97 250.082 643.486 249.237C644.002 248.391 644.705 247.732 645.594 247.259C646.489 246.786 647.494 246.55 648.607 246.55C649.726 246.55 650.718 246.786 651.583 247.259C652.447 247.732 653.125 248.369 653.616 249.171C654.108 249.974 654.353 250.866 654.353 251.848C654.353 252.551 654.226 253.238 653.971 253.91C653.722 254.575 653.287 255.319 652.665 256.14C652.049 256.954 651.194 257.949 650.099 259.125L645.808 263.714V263.863H654.689V265.916H642.637Z" fill="black"/>
<rect x="697.951" y="223.781" width="110.78" height="65.7377" rx="13.1342" fill="#BF8ED2"/>
<path d="M747.512 246.811V265.916H745.199V249.237H745.087L740.423 252.334V249.983L745.199 246.811H747.512ZM759.462 266.177C758.231 266.177 757.133 265.965 756.169 265.542C755.211 265.12 754.45 264.532 753.884 263.779C753.324 263.021 753.019 262.141 752.97 261.139H755.32C755.37 261.755 755.581 262.287 755.955 262.735C756.328 263.176 756.816 263.518 757.419 263.761C758.022 264.003 758.691 264.124 759.425 264.124C760.246 264.124 760.973 263.981 761.607 263.695C762.242 263.409 762.739 263.011 763.1 262.501C763.461 261.991 763.641 261.401 763.641 260.729C763.641 260.026 763.467 259.408 763.119 258.873C762.77 258.332 762.26 257.909 761.589 257.604C760.917 257.299 760.096 257.147 759.126 257.147H757.596V255.095H759.126C759.885 255.095 760.55 254.958 761.122 254.684C761.701 254.411 762.152 254.025 762.475 253.528C762.805 253.03 762.969 252.446 762.969 251.774C762.969 251.127 762.826 250.564 762.54 250.085C762.254 249.607 761.85 249.233 761.328 248.966C760.811 248.699 760.202 248.565 759.499 248.565C758.84 248.565 758.218 248.686 757.634 248.929C757.055 249.165 756.583 249.51 756.216 249.964C755.849 250.412 755.65 250.953 755.619 251.587H753.38C753.417 250.586 753.719 249.709 754.285 248.957C754.851 248.198 755.591 247.607 756.505 247.184C757.425 246.761 758.436 246.55 759.537 246.55C760.718 246.55 761.732 246.789 762.578 247.268C763.423 247.741 764.073 248.366 764.527 249.143C764.981 249.921 765.208 250.76 765.208 251.662C765.208 252.738 764.925 253.655 764.359 254.414C763.8 255.172 763.038 255.698 762.074 255.99V256.14C763.28 256.339 764.223 256.852 764.9 257.679C765.578 258.5 765.917 259.516 765.917 260.729C765.917 261.768 765.634 262.7 765.068 263.527C764.509 264.348 763.744 264.995 762.774 265.468C761.803 265.94 760.7 266.177 759.462 266.177Z" fill="black"/>
<g clip-path="url(#clip8_718_11611)">
<rect x="33.2684" y="289.519" width="110.78" height="65.7377" rx="13.1342" fill="#BF8ED2"/>
<path d="M82.7656 312.549V331.653H80.4522V314.974H80.3403L75.6761 318.071V315.72L80.4522 312.549H82.7656ZM87.8122 327.735V325.832L96.2076 312.549H97.5882V315.496H96.6554L90.3122 325.533V325.683H101.618V327.735H87.8122ZM96.8047 331.653V327.157V326.27V312.549H99.0061V331.653H96.8047Z" fill="black"/>
</g>
<g clip-path="url(#clip9_718_11611)">
<rect x="144.049" y="289.519" width="110.78" height="65.7377" rx="13.1342" fill="#BF8ED2"/>
<path d="M193.982 312.549V331.653H191.669V314.974H191.557L186.893 318.071V315.72L191.669 312.549H193.982ZM205.447 331.914C204.352 331.914 203.366 331.696 202.489 331.261C201.613 330.826 200.91 330.229 200.381 329.47C199.853 328.711 199.564 327.847 199.514 326.877H201.753C201.84 327.741 202.231 328.456 202.928 329.022C203.631 329.582 204.47 329.862 205.447 329.862C206.23 329.862 206.927 329.678 207.536 329.311C208.152 328.945 208.634 328.441 208.982 327.8C209.336 327.153 209.514 326.423 209.514 325.608C209.514 324.775 209.33 324.032 208.963 323.379C208.603 322.719 208.105 322.2 207.471 321.821C206.836 321.441 206.112 321.249 205.297 321.242C204.713 321.236 204.113 321.326 203.497 321.513C202.881 321.693 202.374 321.927 201.976 322.213L199.812 321.951L200.969 312.549H210.894V314.601H202.909L202.238 320.235H202.35C202.741 319.924 203.233 319.666 203.823 319.461C204.414 319.256 205.03 319.153 205.67 319.153C206.84 319.153 207.881 319.433 208.795 319.992C209.716 320.546 210.437 321.305 210.96 322.269C211.488 323.233 211.752 324.333 211.752 325.571C211.752 326.79 211.479 327.878 210.932 328.836C210.391 329.787 209.644 330.54 208.693 331.093C207.741 331.64 206.659 331.914 205.447 331.914Z" fill="black"/>
</g>
<g clip-path="url(#clip10_718_11611)">
<rect x="254.829" y="289.519" width="110.78" height="65.7377" rx="13.1342" fill="#BF8ED2"/>
<path d="M304.557 312.549V331.653H302.244V314.974H302.132L297.468 318.071V315.72L302.244 312.549H304.557ZM316.395 331.914C315.611 331.902 314.828 331.752 314.044 331.466C313.261 331.18 312.546 330.698 311.899 330.02C311.252 329.336 310.733 328.413 310.341 327.25C309.949 326.081 309.753 324.613 309.753 322.847C309.753 321.155 309.912 319.657 310.229 318.351C310.546 317.039 311.006 315.935 311.61 315.039C312.213 314.137 312.94 313.453 313.792 312.987C314.651 312.521 315.618 312.287 316.693 312.287C317.763 312.287 318.715 312.502 319.548 312.931C320.387 313.354 321.072 313.945 321.6 314.703C322.129 315.462 322.471 316.336 322.626 317.325H320.35C320.139 316.466 319.728 315.754 319.119 315.188C318.509 314.623 317.701 314.34 316.693 314.34C315.213 314.34 314.047 314.983 313.195 316.271C312.35 317.558 311.924 319.364 311.917 321.69H312.067C312.415 321.162 312.828 320.711 313.307 320.338C313.792 319.958 314.327 319.666 314.912 319.461C315.496 319.256 316.115 319.153 316.768 319.153C317.863 319.153 318.864 319.427 319.772 319.974C320.68 320.515 321.407 321.264 321.955 322.222C322.502 323.173 322.776 324.265 322.776 325.496C322.776 326.678 322.511 327.76 321.983 328.742C321.454 329.719 320.711 330.496 319.753 331.074C318.802 331.647 317.682 331.926 316.395 331.914ZM316.395 329.862C317.179 329.862 317.881 329.666 318.503 329.274C319.131 328.882 319.626 328.357 319.986 327.698C320.353 327.038 320.537 326.305 320.537 325.496C320.537 324.706 320.359 323.988 320.005 323.341C319.657 322.688 319.175 322.169 318.559 321.784C317.95 321.398 317.253 321.205 316.47 321.205C315.879 321.205 315.328 321.323 314.818 321.56C314.309 321.79 313.861 322.107 313.475 322.511C313.096 322.915 312.797 323.379 312.58 323.901C312.362 324.417 312.253 324.961 312.253 325.533C312.253 326.292 312.43 327.001 312.785 327.66C313.146 328.32 313.637 328.851 314.259 329.255C314.887 329.66 315.599 329.862 316.395 329.862Z" fill="black"/>
</g>
<g clip-path="url(#clip11_718_11611)">
<rect x="365.61" y="289.519" width="110.78" height="65.7377" rx="13.1342" fill="#BF8ED2"/>
<path d="M416.031 312.549V331.653H413.717V314.974H413.605L408.941 318.071V315.72L413.717 312.549H416.031ZM422.122 331.653L430.667 314.75V314.601H420.816V312.549H433.055V314.713L424.547 331.653H422.122Z" fill="black"/>
</g>
<rect x="476.39" y="289.519" width="110.78" height="65.7377" rx="13.1342" fill="#824995"/>
<path d="M526.221 312.549V331.653H523.908V314.974H523.796L519.131 318.071V315.72L523.908 312.549H526.221ZM537.835 331.914C536.554 331.914 535.422 331.687 534.439 331.233C533.463 330.773 532.701 330.142 532.154 329.339C531.607 328.531 531.336 327.611 531.342 326.578C531.336 325.77 531.495 325.024 531.818 324.339C532.141 323.649 532.583 323.074 533.143 322.614C533.708 322.147 534.34 321.852 535.036 321.728V321.616C534.122 321.379 533.394 320.866 532.853 320.076C532.312 319.28 532.045 318.376 532.051 317.362C532.045 316.392 532.291 315.524 532.788 314.759C533.286 313.994 533.97 313.391 534.84 312.95C535.717 312.508 536.715 312.287 537.835 312.287C538.942 312.287 539.93 312.508 540.801 312.95C541.672 313.391 542.356 313.994 542.853 314.759C543.357 315.524 543.612 316.392 543.618 317.362C543.612 318.376 543.335 319.28 542.788 320.076C542.247 320.866 541.529 321.379 540.633 321.616V321.728C541.323 321.852 541.945 322.147 542.499 322.614C543.052 323.074 543.494 323.649 543.823 324.339C544.153 325.024 544.321 325.77 544.327 326.578C544.321 327.611 544.041 328.531 543.488 329.339C542.94 330.142 542.179 330.773 541.202 331.233C540.232 331.687 539.11 331.914 537.835 331.914ZM537.835 329.862C538.699 329.862 539.445 329.722 540.073 329.442C540.702 329.162 541.187 328.767 541.529 328.257C541.871 327.747 542.045 327.15 542.051 326.466C542.045 325.745 541.858 325.107 541.491 324.554C541.124 324.001 540.624 323.565 539.99 323.248C539.361 322.931 538.643 322.772 537.835 322.772C537.02 322.772 536.292 322.931 535.652 323.248C535.018 323.565 534.517 324.001 534.15 324.554C533.789 325.107 533.612 325.745 533.618 326.466C533.612 327.15 533.777 327.747 534.113 328.257C534.455 328.767 534.943 329.162 535.577 329.442C536.212 329.722 536.964 329.862 537.835 329.862ZM537.835 320.795C538.519 320.795 539.125 320.658 539.654 320.384C540.189 320.111 540.608 319.728 540.913 319.237C541.218 318.746 541.373 318.17 541.379 317.511C541.373 316.864 541.221 316.302 540.922 315.823C540.624 315.338 540.21 314.965 539.682 314.703C539.153 314.436 538.537 314.302 537.835 314.302C537.12 314.302 536.495 314.436 535.96 314.703C535.425 314.965 535.011 315.338 534.719 315.823C534.427 316.302 534.284 316.864 534.29 317.511C534.284 318.17 534.43 318.746 534.728 319.237C535.033 319.728 535.453 320.111 535.988 320.384C536.523 320.658 537.138 320.795 537.835 320.795Z" fill="black"/>
<rect x="587.171" y="289.519" width="110.78" height="65.7377" rx="13.1342" fill="#BF8ED2"/>
<path d="M636.899 312.549V331.653H634.585V314.974H634.473L629.809 318.071V315.72L634.585 312.549H636.899ZM648.475 312.287C649.259 312.294 650.042 312.443 650.826 312.735C651.61 313.027 652.325 313.512 652.971 314.19C653.618 314.862 654.137 315.779 654.529 316.942C654.921 318.105 655.117 319.563 655.117 321.317C655.117 323.015 654.955 324.523 654.632 325.841C654.315 327.153 653.855 328.26 653.251 329.162C652.654 330.064 651.927 330.748 651.068 331.214C650.216 331.681 649.253 331.914 648.177 331.914C647.107 331.914 646.152 331.703 645.313 331.28C644.48 330.851 643.796 330.257 643.261 329.498C642.732 328.733 642.393 327.847 642.244 326.839H644.52C644.725 327.716 645.133 328.441 645.742 329.013C646.358 329.579 647.169 329.862 648.177 329.862C649.651 329.862 650.813 329.218 651.665 327.931C652.524 326.644 652.953 324.825 652.953 322.474H652.804C652.455 322.996 652.042 323.447 651.563 323.826C651.084 324.206 650.552 324.498 649.968 324.703C649.383 324.908 648.761 325.011 648.102 325.011C647.008 325.011 646.003 324.741 645.089 324.2C644.181 323.652 643.453 322.903 642.906 321.951C642.365 320.994 642.095 319.899 642.095 318.668C642.095 317.499 642.356 316.429 642.878 315.459C643.407 314.483 644.147 313.705 645.098 313.127C646.056 312.549 647.182 312.269 648.475 312.287ZM648.475 314.34C647.692 314.34 646.986 314.535 646.358 314.927C645.736 315.313 645.241 315.835 644.874 316.494C644.514 317.147 644.333 317.872 644.333 318.668C644.333 319.464 644.508 320.188 644.856 320.841C645.21 321.488 645.692 322.004 646.302 322.39C646.917 322.769 647.617 322.959 648.401 322.959C648.991 322.959 649.542 322.844 650.052 322.614C650.562 322.377 651.006 322.057 651.386 321.653C651.771 321.242 652.073 320.779 652.29 320.263C652.508 319.741 652.617 319.196 652.617 318.631C652.617 317.884 652.437 317.185 652.076 316.532C651.721 315.879 651.23 315.35 650.602 314.946C649.98 314.542 649.271 314.34 648.475 314.34Z" fill="black"/>
<rect x="697.951" y="289.519" width="110.78" height="65.7377" rx="13.1342" fill="#BF8ED2"/>
<path d="M739.103 331.653V329.974L745.409 323.071C746.149 322.262 746.758 321.56 747.237 320.963C747.716 320.359 748.071 319.793 748.301 319.265C748.537 318.73 748.655 318.17 748.655 317.586C748.655 316.914 748.494 316.333 748.17 315.841C747.853 315.35 747.418 314.971 746.864 314.703C746.311 314.436 745.689 314.302 744.999 314.302C744.265 314.302 743.624 314.455 743.077 314.759C742.536 315.058 742.116 315.478 741.818 316.019C741.525 316.56 741.379 317.194 741.379 317.922H739.178C739.178 316.802 739.436 315.82 739.952 314.974C740.468 314.128 741.171 313.469 742.06 312.996C742.956 312.524 743.96 312.287 745.073 312.287C746.193 312.287 747.184 312.524 748.049 312.996C748.913 313.469 749.591 314.106 750.082 314.909C750.574 315.711 750.819 316.603 750.819 317.586C750.819 318.289 750.692 318.976 750.437 319.647C750.188 320.313 749.753 321.056 749.131 321.877C748.515 322.691 747.66 323.686 746.566 324.862L742.275 329.451V329.601H751.155V331.653H739.103ZM761.239 331.914C759.834 331.914 758.636 331.532 757.648 330.767C756.659 329.996 755.903 328.879 755.381 327.418C754.858 325.95 754.597 324.178 754.597 322.101C754.597 320.036 754.858 318.273 755.381 316.812C755.909 315.344 756.668 314.225 757.657 313.453C758.652 312.676 759.846 312.287 761.239 312.287C762.632 312.287 763.823 312.676 764.812 313.453C765.807 314.225 766.565 315.344 767.088 316.812C767.616 318.273 767.881 320.036 767.881 322.101C767.881 324.178 767.62 325.95 767.097 327.418C766.575 328.879 765.819 329.996 764.83 330.767C763.842 331.532 762.644 331.914 761.239 331.914ZM761.239 329.862C762.632 329.862 763.714 329.19 764.485 327.847C765.256 326.504 765.642 324.588 765.642 322.101C765.642 320.446 765.465 319.038 765.11 317.875C764.762 316.712 764.258 315.826 763.599 315.216C762.946 314.607 762.159 314.302 761.239 314.302C759.858 314.302 758.779 314.983 758.002 316.345C757.225 317.701 756.836 319.619 756.836 322.101C756.836 323.755 757.01 325.16 757.358 326.317C757.707 327.474 758.207 328.354 758.86 328.957C759.52 329.56 760.312 329.862 761.239 329.862Z" fill="black"/>
<g clip-path="url(#clip12_718_11611)">
<rect x="33.2684" y="355.256" width="110.78" height="65.7377" rx="13.1342" fill="#BF8ED2"/>
<path d="M76.5238 397.391V395.712L82.8297 388.809C83.5698 388 84.1792 387.297 84.6581 386.7C85.1369 386.097 85.4914 385.531 85.7215 385.003C85.9578 384.468 86.076 383.908 86.076 383.324C86.076 382.652 85.9143 382.07 85.5909 381.579C85.2737 381.088 84.8384 380.709 84.285 380.441C83.7315 380.174 83.1096 380.04 82.4193 380.04C81.6855 380.04 81.0449 380.192 80.4977 380.497C79.9566 380.796 79.5369 381.215 79.2384 381.756C78.9461 382.297 78.7999 382.932 78.7999 383.659H76.5985C76.5985 382.54 76.8565 381.557 77.3727 380.712C77.8889 379.866 78.5916 379.207 79.4809 378.734C80.3764 378.261 81.3807 378.025 82.4939 378.025C83.6133 378.025 84.6052 378.261 85.4696 378.734C86.3341 379.207 87.0119 379.844 87.5032 380.646C87.9945 381.449 88.2401 382.341 88.2401 383.324C88.2401 384.026 88.1126 384.714 87.8577 385.385C87.6089 386.051 87.1736 386.794 86.5517 387.615C85.9361 388.429 85.081 389.424 83.9864 390.6L79.6954 395.189V395.338H88.576V397.391H76.5238ZM99.1449 378.286V397.391H96.8315V380.712H96.7195L92.0554 383.809V381.458L96.8315 378.286H99.1449Z" fill="black"/>
</g>
<g clip-path="url(#clip13_718_11611)">
<rect x="144.049" y="355.256" width="110.78" height="65.7377" rx="13.1342" fill="#BF8ED2"/>
<path d="M185.457 397.391V395.712L191.763 388.809C192.503 388 193.113 387.297 193.591 386.7C194.07 386.097 194.425 385.531 194.655 385.003C194.891 384.468 195.009 383.908 195.009 383.324C195.009 382.652 194.848 382.07 194.524 381.579C194.207 381.088 193.772 380.709 193.218 380.441C192.665 380.174 192.043 380.04 191.353 380.04C190.619 380.04 189.978 380.192 189.431 380.497C188.89 380.796 188.47 381.215 188.172 381.756C187.879 382.297 187.733 382.932 187.733 383.659H185.532C185.532 382.54 185.79 381.557 186.306 380.712C186.822 379.866 187.525 379.207 188.414 378.734C189.31 378.261 190.314 378.025 191.427 378.025C192.547 378.025 193.539 378.261 194.403 378.734C195.267 379.207 195.945 379.844 196.437 380.646C196.928 381.449 197.174 382.341 197.174 383.324C197.174 384.026 197.046 384.714 196.791 385.385C196.542 386.051 196.107 386.794 195.485 387.615C194.869 388.429 194.014 389.424 192.92 390.6L188.629 395.189V395.338H197.509V397.391H185.457ZM201.362 397.391V395.712L207.668 388.809C208.408 388 209.017 387.297 209.496 386.7C209.975 386.097 210.33 385.531 210.56 385.003C210.796 384.468 210.914 383.908 210.914 383.324C210.914 382.652 210.752 382.07 210.429 381.579C210.112 381.088 209.677 380.709 209.123 380.441C208.57 380.174 207.948 380.04 207.257 380.04C206.524 380.04 205.883 380.192 205.336 380.497C204.795 380.796 204.375 381.215 204.076 381.756C203.784 382.297 203.638 382.932 203.638 383.659H201.437C201.437 382.54 201.695 381.557 202.211 380.712C202.727 379.866 203.43 379.207 204.319 378.734C205.215 378.261 206.219 378.025 207.332 378.025C208.451 378.025 209.443 378.261 210.308 378.734C211.172 379.207 211.85 379.844 212.341 380.646C212.833 381.449 213.078 382.341 213.078 383.324C213.078 384.026 212.951 384.714 212.696 385.385C212.447 386.051 212.012 386.794 211.39 387.615C210.774 388.429 209.919 389.424 208.825 390.6L204.534 395.189V395.338H213.414V397.391H201.362Z" fill="black"/>
</g>
<g clip-path="url(#clip14_718_11611)">
<rect x="254.829" y="355.256" width="110.78" height="65.7377" rx="13.1342" fill="#BF8ED2"/>
<path d="M295.827 397.391V395.712L302.133 388.809C302.873 388 303.483 387.297 303.962 386.7C304.44 386.097 304.795 385.531 305.025 385.003C305.261 384.468 305.379 383.908 305.379 383.324C305.379 382.652 305.218 382.07 304.894 381.579C304.577 381.088 304.142 380.709 303.588 380.441C303.035 380.174 302.413 380.04 301.723 380.04C300.989 380.04 300.348 380.192 299.801 380.497C299.26 380.796 298.84 381.215 298.542 381.756C298.25 382.297 298.103 382.932 298.103 383.659H295.902C295.902 382.54 296.16 381.557 296.676 380.712C297.192 379.866 297.895 379.207 298.784 378.734C299.68 378.261 300.684 378.025 301.797 378.025C302.917 378.025 303.909 378.261 304.773 378.734C305.638 379.207 306.315 379.844 306.807 380.646C307.298 381.449 307.544 382.341 307.544 383.324C307.544 384.026 307.416 384.714 307.161 385.385C306.912 386.051 306.477 386.794 305.855 387.615C305.24 388.429 304.384 389.424 303.29 390.6L298.999 395.189V395.338H307.879V397.391H295.827ZM318.187 397.652C316.956 397.652 315.858 397.44 314.894 397.017C313.937 396.595 313.175 396.007 312.609 395.254C312.049 394.496 311.744 393.616 311.695 392.615H314.045C314.095 393.23 314.307 393.762 314.68 394.21C315.053 394.651 315.541 394.993 316.144 395.236C316.747 395.478 317.416 395.6 318.15 395.6C318.971 395.6 319.698 395.457 320.333 395.17C320.967 394.884 321.464 394.486 321.825 393.976C322.186 393.467 322.366 392.876 322.366 392.204C322.366 391.501 322.192 390.883 321.844 390.348C321.496 389.807 320.986 389.384 320.314 389.079C319.642 388.774 318.821 388.622 317.851 388.622H316.322V386.57H317.851C318.61 386.57 319.275 386.433 319.848 386.159C320.426 385.886 320.877 385.5 321.2 385.003C321.53 384.505 321.695 383.921 321.695 383.249C321.695 382.602 321.552 382.039 321.265 381.561C320.979 381.082 320.575 380.709 320.053 380.441C319.537 380.174 318.927 380.04 318.224 380.04C317.565 380.04 316.943 380.161 316.359 380.404C315.78 380.64 315.308 380.985 314.941 381.439C314.574 381.887 314.375 382.428 314.344 383.062H312.105C312.142 382.061 312.444 381.184 313.01 380.432C313.576 379.673 314.316 379.082 315.23 378.659C316.15 378.237 317.161 378.025 318.262 378.025C319.443 378.025 320.457 378.265 321.303 378.743C322.149 379.216 322.798 379.841 323.252 380.618C323.706 381.396 323.933 382.235 323.933 383.137C323.933 384.213 323.65 385.13 323.085 385.889C322.525 386.648 321.763 387.173 320.799 387.465V387.615C322.006 387.814 322.948 388.327 323.626 389.154C324.303 389.975 324.642 390.991 324.642 392.204C324.642 393.243 324.359 394.175 323.793 395.003C323.234 395.823 322.469 396.47 321.499 396.943C320.529 397.416 319.425 397.652 318.187 397.652Z" fill="black"/>
</g>
<g clip-path="url(#clip15_718_11611)">
<rect x="365.61" y="355.256" width="110.78" height="65.7377" rx="13.1342" fill="#BF8ED2"/>
<path d="M406.749 397.391V395.712L413.055 388.809C413.795 388 414.404 387.297 414.883 386.7C415.362 386.097 415.716 385.531 415.947 385.003C416.183 384.468 416.301 383.908 416.301 383.324C416.301 382.652 416.139 382.07 415.816 381.579C415.499 381.088 415.064 380.709 414.51 380.441C413.957 380.174 413.335 380.04 412.644 380.04C411.911 380.04 411.27 380.192 410.723 380.497C410.182 380.796 409.762 381.215 409.463 381.756C409.171 382.297 409.025 382.932 409.025 383.659H406.824C406.824 382.54 407.082 381.557 407.598 380.712C408.114 379.866 408.817 379.207 409.706 378.734C410.601 378.261 411.606 378.025 412.719 378.025C413.838 378.025 414.83 378.261 415.695 378.734C416.559 379.207 417.237 379.844 417.728 380.646C418.22 381.449 418.465 382.341 418.465 383.324C418.465 384.026 418.338 384.714 418.083 385.385C417.834 386.051 417.399 386.794 416.777 387.615C416.161 388.429 415.306 389.424 414.212 390.6L409.921 395.189V395.338H418.801V397.391H406.749ZM421.795 393.473V391.57L430.191 378.286H431.571V381.234H430.639L424.295 391.271V391.421H435.601V393.473H421.795ZM430.788 397.391V392.894V392.008V378.286H432.989V397.391H430.788Z" fill="black"/>
</g>
<rect x="476.39" y="355.256" width="110.78" height="65.7377" rx="13.1342" fill="#BF8ED2"/>
<path d="M517.76 397.391V395.712L524.066 388.809C524.806 388 525.416 387.297 525.894 386.7C526.373 386.097 526.728 385.531 526.958 385.003C527.194 384.468 527.312 383.908 527.312 383.324C527.312 382.652 527.151 382.07 526.827 381.579C526.51 381.088 526.075 380.709 525.521 380.441C524.968 380.174 524.346 380.04 523.656 380.04C522.922 380.04 522.281 380.192 521.734 380.497C521.193 380.796 520.773 381.215 520.475 381.756C520.182 382.297 520.036 382.932 520.036 383.659H517.835C517.835 382.54 518.093 381.557 518.609 380.712C519.125 379.866 519.828 379.207 520.717 378.734C521.613 378.261 522.617 378.025 523.73 378.025C524.85 378.025 525.842 378.261 526.706 378.734C527.57 379.207 528.248 379.844 528.74 380.646C529.231 381.449 529.477 382.341 529.477 383.324C529.477 384.026 529.349 384.714 529.094 385.385C528.845 386.051 528.41 386.794 527.788 387.615C527.172 388.429 526.317 389.424 525.223 390.6L520.932 395.189V395.338H529.812V397.391H517.76ZM539.635 397.652C538.541 397.652 537.555 397.434 536.678 396.999C535.801 396.564 535.098 395.967 534.57 395.208C534.041 394.449 533.752 393.585 533.702 392.615H535.941C536.028 393.479 536.42 394.194 537.116 394.76C537.819 395.32 538.659 395.6 539.635 395.6C540.419 395.6 541.115 395.416 541.725 395.049C542.34 394.682 542.822 394.179 543.17 393.538C543.525 392.891 543.702 392.161 543.702 391.346C543.702 390.513 543.519 389.769 543.152 389.116C542.791 388.457 542.294 387.938 541.659 387.559C541.025 387.179 540.3 386.986 539.486 386.98C538.901 386.974 538.301 387.064 537.685 387.251C537.07 387.431 536.563 387.664 536.165 387.95L534.001 387.689L535.157 378.286H545.083V380.339H537.098L536.426 385.973H536.538C536.93 385.662 537.421 385.404 538.012 385.199C538.603 384.993 539.218 384.891 539.859 384.891C541.028 384.891 542.07 385.171 542.984 385.73C543.904 386.284 544.626 387.042 545.148 388.006C545.677 388.97 545.941 390.071 545.941 391.309C545.941 392.527 545.667 393.616 545.12 394.573C544.579 395.525 543.833 396.277 542.881 396.831C541.93 397.378 540.848 397.652 539.635 397.652Z" fill="black"/>
<rect x="587.171" y="355.256" width="110.78" height="65.7377" rx="13.1342" fill="#BF8ED2"/>
<path d="M628.335 397.391V395.712L634.641 388.809C635.381 388 635.991 387.297 636.47 386.7C636.949 386.097 637.303 385.531 637.533 385.003C637.769 384.468 637.888 383.908 637.888 383.324C637.888 382.652 637.726 382.07 637.403 381.579C637.085 381.088 636.65 380.709 636.097 380.441C635.543 380.174 634.921 380.04 634.231 380.04C633.497 380.04 632.857 380.192 632.309 380.497C631.768 380.796 631.349 381.215 631.05 381.756C630.758 382.297 630.612 382.932 630.612 383.659H628.41C628.41 382.54 628.668 381.557 629.184 380.712C629.701 379.866 630.403 379.207 631.293 378.734C632.188 378.261 633.192 378.025 634.306 378.025C635.425 378.025 636.417 378.261 637.281 378.734C638.146 379.207 638.824 379.844 639.315 380.646C639.806 381.449 640.052 382.341 640.052 383.324C640.052 384.026 639.924 384.714 639.669 385.385C639.421 386.051 638.985 386.794 638.363 387.615C637.748 388.429 636.893 389.424 635.798 390.6L631.507 395.189V395.338H640.388V397.391H628.335ZM650.583 397.652C649.8 397.639 649.016 397.49 648.233 397.204C647.449 396.918 646.734 396.436 646.087 395.758C645.44 395.074 644.921 394.151 644.529 392.988C644.138 391.819 643.942 390.351 643.942 388.585C643.942 386.893 644.1 385.394 644.417 384.089C644.735 382.776 645.195 381.672 645.798 380.777C646.401 379.875 647.129 379.191 647.981 378.725C648.839 378.258 649.806 378.025 650.882 378.025C651.952 378.025 652.903 378.24 653.736 378.669C654.576 379.092 655.26 379.682 655.789 380.441C656.317 381.2 656.659 382.074 656.815 383.062H654.539C654.327 382.204 653.917 381.492 653.307 380.926C652.698 380.36 651.889 380.077 650.882 380.077C649.402 380.077 648.236 380.721 647.384 382.008C646.538 383.296 646.112 385.102 646.106 387.428H646.255C646.603 386.899 647.017 386.449 647.496 386.075C647.981 385.696 648.516 385.404 649.1 385.199C649.685 384.993 650.304 384.891 650.957 384.891C652.051 384.891 653.052 385.164 653.96 385.712C654.868 386.253 655.596 387.002 656.143 387.96C656.69 388.911 656.964 390.003 656.964 391.234C656.964 392.416 656.7 393.498 656.171 394.48C655.642 395.457 654.899 396.234 653.942 396.812C652.99 397.384 651.871 397.664 650.583 397.652ZM650.583 395.6C651.367 395.6 652.07 395.404 652.692 395.012C653.32 394.62 653.814 394.095 654.175 393.435C654.542 392.776 654.725 392.042 654.725 391.234C654.725 390.444 654.548 389.726 654.193 389.079C653.845 388.426 653.363 387.907 652.748 387.521C652.138 387.136 651.442 386.943 650.658 386.943C650.067 386.943 649.517 387.061 649.007 387.297C648.497 387.528 648.049 387.845 647.664 388.249C647.284 388.653 646.986 389.116 646.768 389.639C646.55 390.155 646.442 390.699 646.442 391.271C646.442 392.03 646.619 392.739 646.973 393.398C647.334 394.057 647.825 394.589 648.447 394.993C649.075 395.397 649.787 395.6 650.583 395.6Z" fill="black"/>
<rect x="697.951" y="355.256" width="110.78" height="65.7377" rx="13.1342" fill="#BF8ED2"/>
<path d="M739.808 397.391V395.712L746.114 388.809C746.854 388 747.464 387.297 747.943 386.7C748.422 386.097 748.776 385.531 749.006 385.003C749.242 384.468 749.361 383.908 749.361 383.324C749.361 382.652 749.199 382.07 748.876 381.579C748.558 381.088 748.123 380.709 747.57 380.441C747.016 380.174 746.394 380.04 745.704 380.04C744.97 380.04 744.33 380.192 743.782 380.497C743.241 380.796 742.822 381.215 742.523 381.756C742.231 382.297 742.085 382.932 742.085 383.659H739.883C739.883 382.54 740.141 381.557 740.657 380.712C741.174 379.866 741.876 379.207 742.766 378.734C743.661 378.261 744.665 378.025 745.779 378.025C746.898 378.025 747.89 378.261 748.754 378.734C749.619 379.207 750.297 379.844 750.788 380.646C751.279 381.449 751.525 382.341 751.525 383.324C751.525 384.026 751.397 384.714 751.142 385.385C750.894 386.051 750.458 386.794 749.836 387.615C749.221 388.429 748.366 389.424 747.271 390.6L742.98 395.189V395.338H751.861V397.391H739.808ZM756.31 397.391L764.855 380.488V380.339H755.004V378.286H767.243V380.45L758.736 397.391H756.31Z" fill="black"/>
<g clip-path="url(#clip16_718_11611)">
<rect x="33.2684" y="420.994" width="110.78" height="65.7377" rx="13.1342" fill="#BF8ED2"/>
<path d="M74.5357 463.128V461.449L80.8417 454.546C81.5817 453.737 82.1911 453.035 82.67 452.438C83.1488 451.835 83.5033 451.269 83.7334 450.74C83.9697 450.205 84.0879 449.645 84.0879 449.061C84.0879 448.389 83.9262 447.808 83.6028 447.317C83.2857 446.825 82.8503 446.446 82.2969 446.178C81.7434 445.911 81.1215 445.777 80.4312 445.777C79.6974 445.777 79.0568 445.93 78.5096 446.234C77.9685 446.533 77.5488 446.953 77.2503 447.494C76.958 448.035 76.8118 448.669 76.8118 449.397H74.6104C74.6104 448.277 74.8685 447.295 75.3846 446.449C75.9008 445.603 76.6035 444.944 77.4928 444.471C78.3883 443.999 79.3927 443.762 80.5058 443.762C81.6252 443.762 82.6171 443.999 83.4816 444.471C84.346 444.944 85.0238 445.581 85.5151 446.384C86.0064 447.186 86.252 448.078 86.252 449.061C86.252 449.764 86.1246 450.451 85.8696 451.122C85.6208 451.788 85.1855 452.531 84.5636 453.352C83.948 454.167 83.0929 455.162 81.9984 456.337L77.7074 460.926V461.076H86.5879V463.128H74.5357ZM96.5598 463.389C95.2787 463.389 94.1469 463.162 93.1643 462.708C92.1879 462.248 91.4261 461.617 90.8789 460.815C90.3316 460.006 90.0611 459.086 90.0673 458.053C90.0611 457.245 90.2197 456.499 90.5431 455.815C90.8664 455.124 91.308 454.549 91.8677 454.089C92.4336 453.622 93.0648 453.327 93.7613 453.203V453.091C92.8471 452.854 92.1195 452.341 91.5785 451.552C91.0375 450.756 90.77 449.851 90.7763 448.837C90.77 447.867 91.0157 446.999 91.5132 446.234C92.0107 445.47 92.6948 444.866 93.5654 444.425C94.4423 443.983 95.4404 443.762 96.5598 443.762C97.6667 443.762 98.6555 443.983 99.5262 444.425C100.397 444.866 101.081 445.47 101.578 446.234C102.082 446.999 102.337 447.867 102.343 448.837C102.337 449.851 102.06 450.756 101.513 451.552C100.972 452.341 100.254 452.854 99.3583 453.091V453.203C100.049 453.327 100.67 453.622 101.224 454.089C101.777 454.549 102.219 455.124 102.549 455.815C102.878 456.499 103.046 457.245 103.052 458.053C103.046 459.086 102.766 460.006 102.213 460.815C101.665 461.617 100.904 462.248 99.9273 462.708C98.9572 463.162 97.8346 463.389 96.5598 463.389ZM96.5598 461.337C97.4242 461.337 98.1705 461.197 98.7986 460.917C99.4267 460.637 99.9117 460.242 100.254 459.732C100.596 459.222 100.77 458.625 100.776 457.941C100.77 457.22 100.583 456.583 100.216 456.029C99.8496 455.476 99.3489 455.04 98.7146 454.723C98.0865 454.406 97.3682 454.247 96.5598 454.247C95.7451 454.247 95.0175 454.406 94.377 454.723C93.7426 455.04 93.242 455.476 92.8751 456.029C92.5144 456.583 92.3372 457.22 92.3434 457.941C92.3372 458.625 92.502 459.222 92.8378 459.732C93.1798 460.242 93.668 460.637 94.3023 460.917C94.9367 461.197 95.6891 461.337 96.5598 461.337ZM96.5598 452.27C97.2439 452.27 97.8502 452.133 98.3788 451.859C98.9136 451.586 99.3334 451.203 99.6381 450.712C99.9428 450.221 100.098 449.645 100.105 448.986C100.098 448.34 99.9459 447.777 99.6474 447.298C99.3489 446.813 98.9354 446.44 98.4068 446.178C97.8782 445.911 97.2625 445.777 96.5598 445.777C95.8446 445.777 95.2196 445.911 94.6848 446.178C94.15 446.44 93.7364 446.813 93.4441 447.298C93.1519 447.777 93.0088 448.34 93.015 448.986C93.0088 449.645 93.155 450.221 93.4535 450.712C93.7582 451.203 94.178 451.586 94.7128 451.859C95.2476 452.133 95.8633 452.27 96.5598 452.27Z" fill="black"/>
</g>
<g clip-path="url(#clip17_718_11611)">
<rect x="144.049" y="420.994" width="110.78" height="65.7377" rx="13.1342" fill="#BF8ED2"/>
<path d="M185.214 463.128V461.449L191.519 454.546C192.259 453.737 192.869 453.035 193.348 452.438C193.827 451.835 194.181 451.269 194.411 450.74C194.648 450.205 194.766 449.645 194.766 449.061C194.766 448.389 194.604 447.808 194.281 447.317C193.963 446.825 193.528 446.446 192.975 446.178C192.421 445.911 191.799 445.777 191.109 445.777C190.375 445.777 189.735 445.93 189.187 446.234C188.646 446.533 188.227 446.953 187.928 447.494C187.636 448.035 187.49 448.669 187.49 449.397H185.288C185.288 448.277 185.546 447.295 186.062 446.449C186.579 445.603 187.281 444.944 188.171 444.471C189.066 443.999 190.07 443.762 191.184 443.762C192.303 443.762 193.295 443.999 194.159 444.471C195.024 444.944 195.702 445.581 196.193 446.384C196.684 447.186 196.93 448.078 196.93 449.061C196.93 449.764 196.802 450.451 196.547 451.122C196.299 451.788 195.863 452.531 195.241 453.352C194.626 454.167 193.771 455.162 192.676 456.337L188.385 460.926V461.076H197.266V463.128H185.214ZM207.2 443.762C207.984 443.769 208.767 443.918 209.551 444.21C210.335 444.502 211.05 444.988 211.696 445.665C212.343 446.337 212.863 447.254 213.254 448.417C213.646 449.58 213.842 451.038 213.842 452.792C213.842 454.49 213.68 455.998 213.357 457.316C213.04 458.629 212.58 459.736 211.976 460.637C211.379 461.539 210.652 462.223 209.794 462.69C208.942 463.156 207.978 463.389 206.902 463.389C205.832 463.389 204.878 463.178 204.038 462.755C203.205 462.326 202.521 461.732 201.986 460.973C201.457 460.208 201.118 459.322 200.969 458.315H203.245C203.45 459.191 203.858 459.916 204.467 460.488C205.083 461.054 205.894 461.337 206.902 461.337C208.376 461.337 209.539 460.693 210.391 459.406C211.249 458.119 211.678 456.3 211.678 453.949H211.529C211.18 454.471 210.767 454.922 210.288 455.302C209.809 455.681 209.277 455.973 208.693 456.178C208.108 456.384 207.486 456.486 206.827 456.486C205.733 456.486 204.728 456.216 203.814 455.675C202.906 455.127 202.179 454.378 201.631 453.427C201.09 452.469 200.82 451.374 200.82 450.143C200.82 448.974 201.081 447.904 201.603 446.934C202.132 445.958 202.872 445.18 203.823 444.602C204.781 444.024 205.907 443.744 207.2 443.762ZM207.2 445.815C206.417 445.815 205.711 446.011 205.083 446.402C204.461 446.788 203.966 447.31 203.6 447.969C203.239 448.622 203.059 449.347 203.059 450.143C203.059 450.939 203.233 451.663 203.581 452.316C203.935 452.963 204.417 453.479 205.027 453.865C205.642 454.244 206.342 454.434 207.126 454.434C207.716 454.434 208.267 454.319 208.777 454.089C209.287 453.853 209.731 453.532 210.111 453.128C210.496 452.718 210.798 452.254 211.016 451.738C211.233 451.216 211.342 450.672 211.342 450.106C211.342 449.359 211.162 448.66 210.801 448.007C210.446 447.354 209.955 446.825 209.327 446.421C208.705 446.017 207.996 445.815 207.2 445.815Z" fill="black"/>
</g>
<g clip-path="url(#clip18_718_11611)">
<rect x="254.829" y="420.994" width="110.78" height="65.7377" rx="13.1342" fill="#BF8ED2"/>
<path d="M302.026 463.389C300.795 463.389 299.697 463.178 298.733 462.755C297.775 462.332 297.014 461.744 296.448 460.992C295.888 460.233 295.583 459.353 295.533 458.352H297.884C297.934 458.968 298.145 459.499 298.519 459.947C298.892 460.389 299.38 460.731 299.983 460.973C300.586 461.216 301.255 461.337 301.989 461.337C302.81 461.337 303.537 461.194 304.171 460.908C304.806 460.622 305.303 460.224 305.664 459.714C306.025 459.204 306.205 458.613 306.205 457.941C306.205 457.239 306.031 456.62 305.683 456.085C305.334 455.544 304.824 455.121 304.153 454.816C303.481 454.512 302.66 454.359 301.69 454.359H300.16V452.307H301.69C302.449 452.307 303.114 452.17 303.686 451.897C304.265 451.623 304.716 451.237 305.039 450.74C305.369 450.242 305.533 449.658 305.533 448.986C305.533 448.34 305.39 447.777 305.104 447.298C304.818 446.819 304.414 446.446 303.892 446.178C303.375 445.911 302.766 445.777 302.063 445.777C301.404 445.777 300.782 445.899 300.198 446.141C299.619 446.377 299.147 446.723 298.78 447.177C298.413 447.624 298.214 448.165 298.183 448.8H295.944C295.981 447.798 296.283 446.922 296.849 446.169C297.415 445.41 298.155 444.82 299.069 444.397C299.989 443.974 301 443.762 302.101 443.762C303.282 443.762 304.296 444.002 305.142 444.481C305.987 444.953 306.637 445.578 307.091 446.356C307.545 447.133 307.772 447.973 307.772 448.874C307.772 449.95 307.489 450.867 306.923 451.626C306.364 452.385 305.602 452.91 304.638 453.203V453.352C305.844 453.551 306.786 454.064 307.464 454.891C308.142 455.712 308.481 456.729 308.481 457.941C308.481 458.98 308.198 459.913 307.632 460.74C307.073 461.561 306.308 462.208 305.337 462.68C304.367 463.153 303.263 463.389 302.026 463.389ZM318.528 463.389C317.122 463.389 315.925 463.007 314.936 462.242C313.947 461.471 313.192 460.354 312.669 458.893C312.147 457.425 311.886 455.653 311.886 453.576C311.886 451.511 312.147 449.748 312.669 448.287C313.198 446.819 313.957 445.7 314.946 444.928C315.941 444.151 317.135 443.762 318.528 443.762C319.921 443.762 321.112 444.151 322.1 444.928C323.095 445.7 323.854 446.819 324.376 448.287C324.905 449.748 325.169 451.511 325.169 453.576C325.169 455.653 324.908 457.425 324.386 458.893C323.863 460.354 323.108 461.471 322.119 462.242C321.13 463.007 319.933 463.389 318.528 463.389ZM318.528 461.337C319.921 461.337 321.003 460.665 321.774 459.322C322.545 457.979 322.931 456.063 322.931 453.576C322.931 451.922 322.753 450.513 322.399 449.35C322.051 448.187 321.547 447.301 320.888 446.692C320.235 446.082 319.448 445.777 318.528 445.777C317.147 445.777 316.068 446.458 315.291 447.82C314.513 449.176 314.125 451.094 314.125 453.576C314.125 455.23 314.299 456.635 314.647 457.792C314.995 458.949 315.496 459.829 316.149 460.432C316.808 461.035 317.601 461.337 318.528 461.337Z" fill="black"/>
</g>
<g clip-path="url(#clip19_718_11611)">
<rect x="365.61" y="420.994" width="110.78" height="65.7377" rx="13.1342" fill="#BF8ED2"/>
<path d="M414.91 463.389C413.679 463.389 412.581 463.178 411.617 462.755C410.659 462.332 409.898 461.744 409.332 460.992C408.772 460.233 408.467 459.353 408.418 458.352H410.768C410.818 458.968 411.029 459.499 411.403 459.947C411.776 460.389 412.264 460.731 412.867 460.973C413.47 461.216 414.139 461.337 414.873 461.337C415.694 461.337 416.421 461.194 417.055 460.908C417.69 460.622 418.187 460.224 418.548 459.714C418.909 459.204 419.089 458.613 419.089 457.941C419.089 457.239 418.915 456.62 418.567 456.085C418.218 455.544 417.708 455.121 417.037 454.816C416.365 454.512 415.544 454.359 414.574 454.359H413.044V452.307H414.574C415.333 452.307 415.998 452.17 416.57 451.897C417.149 451.623 417.6 451.237 417.923 450.74C418.253 450.242 418.417 449.658 418.417 448.986C418.417 448.34 418.274 447.777 417.988 447.298C417.702 446.819 417.298 446.446 416.776 446.178C416.259 445.911 415.65 445.777 414.947 445.777C414.288 445.777 413.666 445.899 413.082 446.141C412.503 446.377 412.031 446.723 411.664 447.177C411.297 447.624 411.098 448.165 411.067 448.8H408.828C408.865 447.798 409.167 446.922 409.733 446.169C410.299 445.41 411.039 444.82 411.953 444.397C412.873 443.974 413.884 443.762 414.985 443.762C416.166 443.762 417.18 444.002 418.026 444.481C418.871 444.953 419.521 445.578 419.975 446.356C420.429 447.133 420.656 447.973 420.656 448.874C420.656 449.95 420.373 450.867 419.807 451.626C419.248 452.385 418.486 452.91 417.522 453.203V453.352C418.728 453.551 419.671 454.064 420.348 454.891C421.026 455.712 421.365 456.729 421.365 457.941C421.365 458.98 421.082 459.913 420.516 460.74C419.957 461.561 419.192 462.208 418.222 462.68C417.251 463.153 416.148 463.389 414.91 463.389ZM431.897 444.024V463.128H429.583V446.449H429.471L424.807 449.546V447.195L429.583 444.024H431.897Z" fill="black"/>
</g>
<rect x="476.39" y="420.994" width="110.78" height="65.7377" rx="13.1342" fill="#BF8ED2"/>
<path d="M534.314 444.024V463.128H532.001V446.449H531.889L527.225 449.546V447.195L532.001 444.024H534.314Z" fill="black"/>
<path d="M534.314 444.024V463.128H532.001V446.449H531.889L527.225 449.546V447.195L532.001 444.024H534.314Z" fill="white" fill-opacity="0.72"/>
<rect x="587.171" y="420.994" width="110.78" height="65.7377" rx="13.1342" fill="#BF8ED2"/>
<path d="M636.532 463.128V461.449L642.837 454.546C643.577 453.737 644.187 453.035 644.666 452.438C645.145 451.835 645.499 451.269 645.729 450.74C645.966 450.205 646.084 449.645 646.084 449.061C646.084 448.389 645.922 447.808 645.599 447.317C645.281 446.825 644.846 446.446 644.293 446.178C643.739 445.911 643.117 445.777 642.427 445.777C641.693 445.777 641.053 445.93 640.505 446.234C639.964 446.533 639.545 446.953 639.246 447.494C638.954 448.035 638.808 448.669 638.808 449.397H636.606C636.606 448.277 636.864 447.295 637.38 446.449C637.897 445.603 638.599 444.944 639.489 444.471C640.384 443.999 641.388 443.762 642.502 443.762C643.621 443.762 644.613 443.999 645.477 444.471C646.342 444.944 647.02 445.581 647.511 446.384C648.002 447.186 648.248 448.078 648.248 449.061C648.248 449.764 648.12 450.451 647.865 451.122C647.617 451.788 647.181 452.531 646.559 453.352C645.944 454.167 645.089 455.162 643.994 456.337L639.703 460.926V461.076H648.584V463.128H636.532Z" fill="black"/>
<path d="M636.532 463.128V461.449L642.837 454.546C643.577 453.737 644.187 453.035 644.666 452.438C645.145 451.835 645.499 451.269 645.729 450.74C645.966 450.205 646.084 449.645 646.084 449.061C646.084 448.389 645.922 447.808 645.599 447.317C645.281 446.825 644.846 446.446 644.293 446.178C643.739 445.911 643.117 445.777 642.427 445.777C641.693 445.777 641.053 445.93 640.505 446.234C639.964 446.533 639.545 446.953 639.246 447.494C638.954 448.035 638.808 448.669 638.808 449.397H636.606C636.606 448.277 636.864 447.295 637.38 446.449C637.897 445.603 638.599 444.944 639.489 444.471C640.384 443.999 641.388 443.762 642.502 443.762C643.621 443.762 644.613 443.999 645.477 444.471C646.342 444.944 647.02 445.581 647.511 446.384C648.002 447.186 648.248 448.078 648.248 449.061C648.248 449.764 648.12 450.451 647.865 451.122C647.617 451.788 647.181 452.531 646.559 453.352C645.944 454.167 645.089 455.162 643.994 456.337L639.703 460.926V461.076H648.584V463.128H636.532Z" fill="white" fill-opacity="0.72"/>
<rect x="697.951" y="420.994" width="110.78" height="65.7377" rx="13.1342" fill="#BF8ED2"/>
<path d="M753.357 463.389C752.125 463.389 751.028 463.178 750.064 462.755C749.106 462.332 748.344 461.744 747.778 460.992C747.219 460.233 746.914 459.353 746.864 458.352H749.215C749.265 458.968 749.476 459.499 749.849 459.947C750.222 460.389 750.711 460.731 751.314 460.973C751.917 461.216 752.586 461.337 753.319 461.337C754.14 461.337 754.868 461.194 755.502 460.908C756.136 460.622 756.634 460.224 756.995 459.714C757.355 459.204 757.536 458.613 757.536 457.941C757.536 457.239 757.362 456.62 757.013 456.085C756.665 455.544 756.155 455.121 755.483 454.816C754.812 454.512 753.991 454.359 753.021 454.359H751.491V452.307H753.021C753.78 452.307 754.445 452.17 755.017 451.897C755.595 451.623 756.046 451.237 756.37 450.74C756.699 450.242 756.864 449.658 756.864 448.986C756.864 448.34 756.721 447.777 756.435 447.298C756.149 446.819 755.745 446.446 755.222 446.178C754.706 445.911 754.097 445.777 753.394 445.777C752.735 445.777 752.113 445.899 751.528 446.141C750.95 446.377 750.477 446.723 750.11 447.177C749.743 447.624 749.544 448.165 749.513 448.8H747.275C747.312 447.798 747.614 446.922 748.179 446.169C748.745 445.41 749.485 444.82 750.4 444.397C751.32 443.974 752.331 443.762 753.431 443.762C754.613 443.762 755.627 444.002 756.472 444.481C757.318 444.953 757.968 445.578 758.422 446.356C758.876 447.133 759.103 447.973 759.103 448.874C759.103 449.95 758.82 450.867 758.254 451.626C757.694 452.385 756.932 452.91 755.969 453.203V453.352C757.175 453.551 758.117 454.064 758.795 454.891C759.473 455.712 759.812 456.729 759.812 457.941C759.812 458.98 759.529 459.913 758.963 460.74C758.403 461.561 757.638 462.208 756.668 462.68C755.698 463.153 754.594 463.389 753.357 463.389Z" fill="black"/>
<path d="M753.357 463.389C752.125 463.389 751.028 463.178 750.064 462.755C749.106 462.332 748.344 461.744 747.778 460.992C747.219 460.233 746.914 459.353 746.864 458.352H749.215C749.265 458.968 749.476 459.499 749.849 459.947C750.222 460.389 750.711 460.731 751.314 460.973C751.917 461.216 752.586 461.337 753.319 461.337C754.14 461.337 754.868 461.194 755.502 460.908C756.136 460.622 756.634 460.224 756.995 459.714C757.355 459.204 757.536 458.613 757.536 457.941C757.536 457.239 757.362 456.62 757.013 456.085C756.665 455.544 756.155 455.121 755.483 454.816C754.812 454.512 753.991 454.359 753.021 454.359H751.491V452.307H753.021C753.78 452.307 754.445 452.17 755.017 451.897C755.595 451.623 756.046 451.237 756.37 450.74C756.699 450.242 756.864 449.658 756.864 448.986C756.864 448.34 756.721 447.777 756.435 447.298C756.149 446.819 755.745 446.446 755.222 446.178C754.706 445.911 754.097 445.777 753.394 445.777C752.735 445.777 752.113 445.899 751.528 446.141C750.95 446.377 750.477 446.723 750.11 447.177C749.743 447.624 749.544 448.165 749.513 448.8H747.275C747.312 447.798 747.614 446.922 748.179 446.169C748.745 445.41 749.485 444.82 750.4 444.397C751.32 443.974 752.331 443.762 753.431 443.762C754.613 443.762 755.627 444.002 756.472 444.481C757.318 444.953 757.968 445.578 758.422 446.356C758.876 447.133 759.103 447.973 759.103 448.874C759.103 449.95 758.82 450.867 758.254 451.626C757.694 452.385 756.932 452.91 755.969 453.203V453.352C757.175 453.551 758.117 454.064 758.795 454.891C759.473 455.712 759.812 456.729 759.812 457.941C759.812 458.98 759.529 459.913 758.963 460.74C758.403 461.561 757.638 462.208 756.668 462.68C755.698 463.153 754.594 463.389 753.357 463.389Z" fill="white" fill-opacity="0.72"/>
<path d="M14.6938 505.306L17.0157 502.984L17.0157 502.984L14.6938 505.306ZM827.306 505.306L824.984 502.984L827.306 505.306ZM827.306 14.6938L829.628 12.372L827.306 14.6938ZM14.6938 14.6938L12.372 12.372L14.6938 14.6938ZM59.5368 10.2836H782.463V3.71645H59.5368V10.2836ZM831.716 59.5368V460.463H838.284V59.5368H831.716ZM782.463 509.716H59.5368V516.284H782.463V509.716ZM10.2836 460.463V59.5368H3.71645V460.463H10.2836ZM59.5368 509.716C47.0609 509.716 38.0343 509.709 31.1507 508.784C24.3616 507.871 20.1508 506.119 17.0157 502.984L12.372 507.628C16.9307 512.187 22.7583 514.282 30.2757 515.293C37.6986 516.291 47.2466 516.284 59.5368 516.284V509.716ZM3.71645 460.463C3.71645 472.753 3.70948 482.301 4.70746 489.724C5.71814 497.242 7.81333 503.069 12.372 507.628L17.0157 502.984C13.8805 499.849 12.1288 495.638 11.216 488.849C10.2905 481.966 10.2836 472.939 10.2836 460.463H3.71645ZM831.716 460.463C831.716 472.939 831.709 481.966 830.784 488.849C829.871 495.638 828.119 499.849 824.984 502.984L829.628 507.628C834.187 503.069 836.282 497.242 837.293 489.724C838.291 482.301 838.284 472.753 838.284 460.463H831.716ZM782.463 516.284C794.753 516.284 804.301 516.291 811.724 515.293C819.242 514.282 825.069 512.187 829.628 507.628L824.984 502.984C821.849 506.119 817.638 507.871 810.849 508.784C803.966 509.709 794.939 509.716 782.463 509.716V516.284ZM782.463 10.2836C794.939 10.2836 803.966 10.2905 810.849 11.216C817.638 12.1288 821.849 13.8805 824.984 17.0157L829.628 12.372C825.069 7.81333 819.242 5.71814 811.724 4.70746C804.301 3.70948 794.753 3.71645 782.463 3.71645V10.2836ZM838.284 59.5368C838.284 47.2466 838.291 37.6986 837.293 30.2757C836.282 22.7583 834.187 16.9307 829.628 12.372L824.984 17.0157C828.119 20.1508 829.871 24.3616 830.784 31.1508C831.709 38.0344 831.716 47.0609 831.716 59.5368H838.284ZM59.5368 3.71645C47.2466 3.71645 37.6986 3.70948 30.2757 4.70746C22.7583 5.71814 16.9307 7.81333 12.372 12.372L17.0157 17.0157C20.1508 13.8805 24.3616 12.1288 31.1508 11.216C38.0344 10.2905 47.0609 10.2836 59.5368 10.2836V3.71645ZM10.2836 59.5368C10.2836 47.0609 10.2905 38.0343 11.216 31.1508C12.1288 24.3616 13.8805 20.1508 17.0157 17.0157L12.372 12.372C7.81333 16.9307 5.71814 22.7583 4.70746 30.2757C3.70948 37.6986 3.71645 47.2466 3.71645 59.5368H10.2836Z" fill="black"/>
</g>
<defs>
<filter id="filter0_d_718_11611" x="0.432899" y="0.432899" width="841.134" height="519.134" filterUnits="userSpaceOnUse" color-interpolation-filters="sRGB">
<feFlood flood-opacity="0" result="BackgroundImageFix"/>
<feColorMatrix in="SourceAlpha" type="matrix" values="0 0 0 0 0 0 0 0 0 0 0 0 0 0 0 0 0 0 127 0" result="hardAlpha"/>
<feMorphology radius="6.5671" operator="dilate" in="SourceAlpha" result="effect1_dropShadow_718_11611"/>
<feOffset/>
<feColorMatrix type="matrix" values="0 0 0 0 0 0 0 0 0 0 0 0 0 0 0 0 0 0 0.08 0"/>
<feBlend mode="normal" in2="BackgroundImageFix" result="effect1_dropShadow_718_11611"/>
<feBlend mode="normal" in="SourceGraphic" in2="effect1_dropShadow_718_11611" result="shape"/>
</filter>
<clipPath id="clip0_718_11611">
<rect x="33.2684" y="158.043" width="110.78" height="65.7377" rx="13.1342" fill="white"/>
</clipPath>
<clipPath id="clip1_718_11611">
<rect x="144.049" y="158.043" width="110.78" height="65.7377" rx="13.1342" fill="white"/>
</clipPath>
<clipPath id="clip2_718_11611">
<rect x="254.829" y="158.043" width="110.78" height="65.7377" rx="13.1342" fill="white"/>
</clipPath>
<clipPath id="clip3_718_11611">
<rect x="365.61" y="158.043" width="110.78" height="65.7377" rx="13.1342" fill="white"/>
</clipPath>
<clipPath id="clip4_718_11611">
<rect x="33.2684" y="223.781" width="110.78" height="65.7377" rx="13.1342" fill="white"/>
</clipPath>
<clipPath id="clip5_718_11611">
<rect x="144.049" y="223.781" width="110.78" height="65.7377" rx="13.1342" fill="white"/>
</clipPath>
<clipPath id="clip6_718_11611">
<rect x="254.829" y="223.781" width="110.78" height="65.7377" rx="13.1342" fill="white"/>
</clipPath>
<clipPath id="clip7_718_11611">
<rect x="365.61" y="223.781" width="110.78" height="65.7377" rx="13.1342" fill="white"/>
</clipPath>
<clipPath id="clip8_718_11611">
<rect x="33.2684" y="289.519" width="110.78" height="65.7377" rx="13.1342" fill="white"/>
</clipPath>
<clipPath id="clip9_718_11611">
<rect x="144.049" y="289.519" width="110.78" height="65.7377" rx="13.1342" fill="white"/>
</clipPath>
<clipPath id="clip10_718_11611">
<rect x="254.829" y="289.519" width="110.78" height="65.7377" rx="13.1342" fill="white"/>
</clipPath>
<clipPath id="clip11_718_11611">
<rect x="365.61" y="289.519" width="110.78" height="65.7377" rx="13.1342" fill="white"/>
</clipPath>
<clipPath id="clip12_718_11611">
<rect x="33.2684" y="355.256" width="110.78" height="65.7377" rx="13.1342" fill="white"/>
</clipPath>
<clipPath id="clip13_718_11611">
<rect x="144.049" y="355.256" width="110.78" height="65.7377" rx="13.1342" fill="white"/>
</clipPath>
<clipPath id="clip14_718_11611">
<rect x="254.829" y="355.256" width="110.78" height="65.7377" rx="13.1342" fill="white"/>
</clipPath>
<clipPath id="clip15_718_11611">
<rect x="365.61" y="355.256" width="110.78" height="65.7377" rx="13.1342" fill="white"/>
</clipPath>
<clipPath id="clip16_718_11611">
<rect x="33.2684" y="420.994" width="110.78" height="65.7377" rx="13.1342" fill="white"/>
</clipPath>
<clipPath id="clip17_718_11611">
<rect x="144.049" y="420.994" width="110.78" height="65.7377" rx="13.1342" fill="white"/>
</clipPath>
<clipPath id="clip18_718_11611">
<rect x="254.829" y="420.994" width="110.78" height="65.7377" rx="13.1342" fill="white"/>
</clipPath>
<clipPath id="clip19_718_11611">
<rect x="365.61" y="420.994" width="110.78" height="65.7377" rx="13.1342" fill="white"/>
</clipPath>
</defs>
</svg>
