<svg width="222" height="74" viewBox="0 0 222 74" fill="none" xmlns="http://www.w3.org/2000/svg">
<path d="M0 29.6C0 15.6464 0 8.66964 4.33482 4.33482C8.66964 0 15.6464 0 29.6 0H192.4C206.354 0 213.33 0 217.665 4.33482C222 8.66964 222 15.6464 222 29.6V44.4C222 58.3536 222 65.3304 217.665 69.6652C213.33 74 206.354 74 192.4 74H29.6C15.6464 74 8.66964 74 4.33482 69.6652C0 65.3304 0 58.3536 0 44.4V29.6Z" fill="white"/>
<path d="M37 55.5C47.2173 55.5 55.5 47.2173 55.5 37C55.5 26.7827 47.2173 18.5 37 18.5C26.7827 18.5 18.5 26.7827 18.5 37C18.5 47.2173 26.7827 55.5 37 55.5Z" fill="#B7B7B7" stroke="black" stroke-width="3.7" stroke-linecap="round" stroke-linejoin="round"/>
<path d="M44.4001 44.4002C44.4001 44.4002 41.6251 40.7002 37.0001 40.7002C32.3751 40.7002 29.6001 44.4002 29.6001 44.4002" stroke="black" stroke-width="3.7" stroke-linecap="round" stroke-linejoin="round"/>
<path d="M31.4502 31.4502H31.4687" stroke="black" stroke-width="3.7" stroke-linecap="round" stroke-linejoin="round"/>
<path d="M42.5498 31.4502H42.5683" stroke="black" stroke-width="3.7" stroke-linecap="round" stroke-linejoin="round"/>
<path d="M111 55.5C121.217 55.5 129.5 47.2173 129.5 37C129.5 26.7827 121.217 18.5 111 18.5C100.783 18.5 92.5 26.7827 92.5 37C92.5 47.2173 100.783 55.5 111 55.5Z" fill="#BF8ED2" fill-opacity="0.7" stroke="black" stroke-width="3.7" stroke-linecap="round" stroke-linejoin="round"/>
<path d="M103.6 42.5498H118.4" stroke="black" stroke-width="3.7" stroke-linecap="round" stroke-linejoin="round"/>
<path d="M105.45 31.4502H105.469" stroke="black" stroke-width="3.7" stroke-linecap="round" stroke-linejoin="round"/>
<path d="M116.55 31.4502H116.568" stroke="black" stroke-width="3.7" stroke-linecap="round" stroke-linejoin="round"/>
<path d="M185 55.5C195.217 55.5 203.5 47.2173 203.5 37C203.5 26.7827 195.217 18.5 185 18.5C174.783 18.5 166.5 26.7827 166.5 37C166.5 47.2173 174.783 55.5 185 55.5Z" fill="#BF8ED2" stroke="black" stroke-width="3.7" stroke-linecap="round" stroke-linejoin="round"/>
<path d="M177.6 40.7002C177.6 40.7002 180.375 44.4002 185 44.4002C189.625 44.4002 192.4 40.7002 192.4 40.7002" stroke="black" stroke-width="3.7" stroke-linecap="round" stroke-linejoin="round"/>
<path d="M179.45 31.4502H179.469" stroke="black" stroke-width="3.7" stroke-linecap="round" stroke-linejoin="round"/>
<path d="M190.55 31.4502H190.568" stroke="black" stroke-width="3.7" stroke-linecap="round" stroke-linejoin="round"/>
<path d="M4.33482 69.6652L6.95111 67.0489L4.33482 69.6652ZM217.665 69.6652L215.049 67.0489L217.665 69.6652ZM217.665 4.33482L215.049 6.95111L217.665 4.33482ZM4.33482 4.33482L1.71852 1.71852L4.33482 4.33482ZM29.6 3.7H192.4V-3.7H29.6V3.7ZM218.3 29.6V44.4H225.7V29.6H218.3ZM192.4 70.3H29.6V77.7H192.4V70.3ZM3.7 44.4V29.6H-3.7V44.4H3.7ZM29.6 70.3C22.5186 70.3 17.5798 70.2921 13.8534 69.7911C10.2334 69.3045 8.31648 68.4143 6.95111 67.0489L1.71852 72.2815C4.68798 75.2509 8.42683 76.5281 12.8674 77.1252C17.2015 77.7079 22.7278 77.7 29.6 77.7V70.3ZM-3.7 44.4C-3.7 51.2722 -3.70786 56.7985 -3.12515 61.1326C-2.52814 65.5732 -1.25093 69.312 1.71852 72.2815L6.95111 67.0489C5.58575 65.6835 4.69555 63.7666 4.20886 60.1466C3.70786 56.4202 3.7 51.4814 3.7 44.4H-3.7ZM218.3 44.4C218.3 51.4814 218.292 56.4202 217.791 60.1466C217.304 63.7666 216.414 65.6835 215.049 67.0489L220.281 72.2815C223.251 69.312 224.528 65.5732 225.125 61.1326C225.708 56.7985 225.7 51.2722 225.7 44.4H218.3ZM192.4 77.7C199.272 77.7 204.799 77.7079 209.133 77.1252C213.573 76.5281 217.312 75.2509 220.281 72.2815L215.049 67.0489C213.684 68.4143 211.767 69.3045 208.147 69.7911C204.42 70.2921 199.481 70.3 192.4 70.3V77.7ZM192.4 3.7C199.481 3.7 204.42 3.70786 208.147 4.20886C211.767 4.69555 213.684 5.58575 215.049 6.95111L220.281 1.71852C217.312 -1.25093 213.573 -2.52814 209.133 -3.12515C204.799 -3.70786 199.272 -3.7 192.4 -3.7V3.7ZM225.7 29.6C225.7 22.7278 225.708 17.2015 225.125 12.8674C224.528 8.42683 223.251 4.68798 220.281 1.71852L215.049 6.95111C216.414 8.31648 217.304 10.2334 217.791 13.8534C218.292 17.5798 218.3 22.5186 218.3 29.6H225.7ZM29.6 -3.7C22.7278 -3.7 17.2015 -3.70786 12.8674 -3.12515C8.42683 -2.52814 4.68798 -1.25093 1.71852 1.71852L6.95111 6.95111C8.31648 5.58575 10.2334 4.69555 13.8534 4.20886C17.5798 3.70786 22.5186 3.7 29.6 3.7V-3.7ZM3.7 29.6C3.7 22.5186 3.70786 17.5798 4.20886 13.8534C4.69555 10.2334 5.58575 8.31648 6.95111 6.95111L1.71852 1.71852C-1.25093 4.68798 -2.52814 8.42683 -3.12515 12.8674C-3.70786 17.2015 -3.7 22.7278 -3.7 29.6H3.7Z" fill="black"/>
<path d="M4.33482 69.6652L6.95111 67.0489L4.33482 69.6652ZM217.665 69.6652L215.049 67.0489L217.665 69.6652ZM217.665 4.33482L215.049 6.95111L217.665 4.33482ZM4.33482 4.33482L1.71852 1.71852L4.33482 4.33482ZM29.6 3.7H192.4V-3.7H29.6V3.7ZM218.3 29.6V44.4H225.7V29.6H218.3ZM192.4 70.3H29.6V77.7H192.4V70.3ZM3.7 44.4V29.6H-3.7V44.4H3.7ZM29.6 70.3C22.5186 70.3 17.5798 70.2921 13.8534 69.7911C10.2334 69.3045 8.31648 68.4143 6.95111 67.0489L1.71852 72.2815C4.68798 75.2509 8.42683 76.5281 12.8674 77.1252C17.2015 77.7079 22.7278 77.7 29.6 77.7V70.3ZM-3.7 44.4C-3.7 51.2722 -3.70786 56.7985 -3.12515 61.1326C-2.52814 65.5732 -1.25093 69.312 1.71852 72.2815L6.95111 67.0489C5.58575 65.6835 4.69555 63.7666 4.20886 60.1466C3.70786 56.4202 3.7 51.4814 3.7 44.4H-3.7ZM218.3 44.4C218.3 51.4814 218.292 56.4202 217.791 60.1466C217.304 63.7666 216.414 65.6835 215.049 67.0489L220.281 72.2815C223.251 69.312 224.528 65.5732 225.125 61.1326C225.708 56.7985 225.7 51.2722 225.7 44.4H218.3ZM192.4 77.7C199.272 77.7 204.799 77.7079 209.133 77.1252C213.573 76.5281 217.312 75.2509 220.281 72.2815L215.049 67.0489C213.684 68.4143 211.767 69.3045 208.147 69.7911C204.42 70.2921 199.481 70.3 192.4 70.3V77.7ZM192.4 3.7C199.481 3.7 204.42 3.70786 208.147 4.20886C211.767 4.69555 213.684 5.58575 215.049 6.95111L220.281 1.71852C217.312 -1.25093 213.573 -2.52814 209.133 -3.12515C204.799 -3.70786 199.272 -3.7 192.4 -3.7V3.7ZM225.7 29.6C225.7 22.7278 225.708 17.2015 225.125 12.8674C224.528 8.42683 223.251 4.68798 220.281 1.71852L215.049 6.95111C216.414 8.31648 217.304 10.2334 217.791 13.8534C218.292 17.5798 218.3 22.5186 218.3 29.6H225.7ZM29.6 -3.7C22.7278 -3.7 17.2015 -3.70786 12.8674 -3.12515C8.42683 -2.52814 4.68798 -1.25093 1.71852 1.71852L6.95111 6.95111C8.31648 5.58575 10.2334 4.69555 13.8534 4.20886C17.5798 3.70786 22.5186 3.7 29.6 3.7V-3.7ZM3.7 29.6C3.7 22.5186 3.70786 17.5798 4.20886 13.8534C4.69555 10.2334 5.58575 8.31648 6.95111 6.95111L1.71852 1.71852C-1.25093 4.68798 -2.52814 8.42683 -3.12515 12.8674C-3.70786 17.2015 -3.7 22.7278 -3.7 29.6H3.7Z" fill="white" fill-opacity="0.72"/>
</svg>
