<svg width="39" height="41" viewBox="0 0 39 41" fill="none" xmlns="http://www.w3.org/2000/svg">
<path d="M35.1061 33.8399V28.7823C35.1251 27.9555 34.8615 27.15 34.3652 26.519C33.869 25.888 33.1747 25.4755 32.4146 25.36C30.9123 25.1465 29.4372 24.7506 28.0175 24.1798C27.4574 23.953 26.8487 23.9039 26.2635 24.0384C25.6783 24.1728 25.1412 24.4852 24.7157 24.9385L22.7284 27.0795C18.8108 24.6796 15.5671 21.185 13.3395 16.9643L15.3268 14.8233C15.7475 14.3649 16.0375 13.7862 16.1623 13.1557C16.2871 12.5253 16.2415 11.8695 16.031 11.2661C15.5012 9.73652 15.1338 8.14732 14.9356 6.52877C14.8293 5.71862 14.4532 4.97774 13.8774 4.44424C13.3016 3.91074 12.5654 3.62102 11.806 3.62907H7.11155C6.67706 3.62951 6.24742 3.72741 5.84998 3.91655C5.45254 4.10568 5.096 4.3819 4.80308 4.72762C4.51015 5.07334 4.28725 5.48098 4.14857 5.92459C4.00989 6.36821 3.95846 6.83807 3.99756 7.30427C4.5112 12.5153 6.15698 17.5227 8.80155 21.9208C11.2041 25.9941 14.4096 29.4476 18.1904 32.036C22.2543 34.8753 26.8796 36.6479 31.6948 37.2116C32.1288 37.2539 32.5663 37.198 32.9791 37.0476C33.392 36.8972 33.7711 36.6555 34.0922 36.3381C34.4133 36.0207 34.6694 35.6345 34.844 35.2043C35.0186 34.7741 35.1079 34.3094 35.1061 33.8399Z" stroke="#4C0564" stroke-width="3.37174" stroke-linecap="round" stroke-linejoin="round"/>
</svg>
