<svg width="550" height="32" viewBox="0 0 550 32" fill="none" xmlns="http://www.w3.org/2000/svg">
<path d="M18.1046 6.05615H7.92578V16.235H18.1046C19.4544 16.235 20.7489 15.6988 21.7033 14.7443C22.6578 13.7899 23.194 12.4953 23.194 11.1456C23.194 9.79576 22.6578 8.50125 21.7033 7.5468C20.7489 6.59236 19.4544 6.05615 18.1046 6.05615Z" stroke="#4C0564" stroke-width="2.5447" stroke-linecap="round" stroke-linejoin="round"/>
<path d="M19.3769 16.2349H7.92578V26.4137H19.3769C20.7267 26.4137 22.0212 25.8775 22.9757 24.923C23.9301 23.9686 24.4663 22.6741 24.4663 21.3243C24.4663 19.9745 23.9301 18.68 22.9757 17.7255C22.0212 16.7711 20.7267 16.2349 19.3769 16.2349Z" stroke="#4C0564" stroke-width="2.5447" stroke-linecap="round" stroke-linejoin="round"/>
<path d="M75.3603 6.05615H63.9092" stroke="#4C0564" stroke-width="2.5447" stroke-linecap="round" stroke-linejoin="round"/>
<path d="M68.9985 26.4141H57.5474" stroke="#4C0564" stroke-width="2.5447" stroke-linecap="round" stroke-linejoin="round"/>
<path d="M70.2708 6.05615L62.6367 26.4138" stroke="#4C0564" stroke-width="2.5447" stroke-linecap="round" stroke-linejoin="round"/>
<path d="M109.714 4.78369V13.6901C109.714 15.7148 110.518 17.6566 111.95 19.0883C113.382 20.5199 115.323 21.3242 117.348 21.3242C119.373 21.3242 121.314 20.5199 122.746 19.0883C124.178 17.6566 124.982 15.7148 124.982 13.6901V4.78369" stroke="#4C0564" stroke-width="2.5447" stroke-linecap="round" stroke-linejoin="round"/>
<path d="M107.169 27.686H127.527" stroke="#4C0564" stroke-width="2.5447" stroke-linecap="round" stroke-linejoin="round"/>
<path d="M205.14 13.6904H187.327" stroke="#4C0564" stroke-width="2.5447" stroke-linecap="round" stroke-linejoin="round"/>
<path d="M210.229 8.60107H187.327" stroke="#4C0564" stroke-width="2.5447" stroke-linecap="round" stroke-linejoin="round"/>
<path d="M210.229 18.7798H187.327" stroke="#4C0564" stroke-width="2.5447" stroke-linecap="round" stroke-linejoin="round"/>
<path d="M205.14 23.8691H187.327" stroke="#4C0564" stroke-width="2.5447" stroke-linecap="round" stroke-linejoin="round"/>
<path d="M257.307 13.6904H242.039" stroke="#4C0564" stroke-width="2.5447" stroke-linecap="round" stroke-linejoin="round"/>
<path d="M261.124 8.60107H238.221" stroke="#4C0564" stroke-width="2.5447" stroke-linecap="round" stroke-linejoin="round"/>
<path d="M261.124 18.7798H238.221" stroke="#4C0564" stroke-width="2.5447" stroke-linecap="round" stroke-linejoin="round"/>
<path d="M257.307 23.8691H242.039" stroke="#4C0564" stroke-width="2.5447" stroke-linecap="round" stroke-linejoin="round"/>
<path d="M312.017 13.6904H294.205" stroke="#4C0564" stroke-width="2.5447" stroke-linecap="round" stroke-linejoin="round"/>
<path d="M312.018 8.60107H289.115" stroke="#4C0564" stroke-width="2.5447" stroke-linecap="round" stroke-linejoin="round"/>
<path d="M312.018 18.7798H289.115" stroke="#4C0564" stroke-width="2.5447" stroke-linecap="round" stroke-linejoin="round"/>
<path d="M312.017 23.8691H294.205" stroke="#4C0564" stroke-width="2.5447" stroke-linecap="round" stroke-linejoin="round"/>
<path d="M379.452 17.5075C379.999 18.238 380.696 18.8424 381.496 19.2798C382.297 19.7172 383.182 19.9773 384.092 20.0425C385.002 20.1076 385.915 19.9763 386.77 19.6575C387.625 19.3387 388.401 18.8398 389.046 18.1946L392.863 14.3775C394.022 13.1777 394.663 11.5707 394.648 9.90266C394.634 8.23463 393.965 6.63903 392.785 5.45951C391.606 4.27999 390.01 3.61093 388.342 3.59643C386.674 3.58194 385.067 4.22317 383.867 5.38201L381.679 7.55773" stroke="#4C0564" stroke-width="2.5447" stroke-linecap="round" stroke-linejoin="round"/>
<path d="M384.542 14.9628C383.996 14.2323 383.299 13.6279 382.498 13.1905C381.697 12.7531 380.812 12.493 379.902 12.4279C378.992 12.3627 378.079 12.494 377.224 12.8128C376.37 13.1317 375.594 13.6306 374.949 14.2758L371.132 18.0928C369.973 19.2926 369.331 20.8996 369.346 22.5677C369.36 24.2357 370.029 25.8313 371.209 27.0108C372.389 28.1903 373.984 28.8594 375.652 28.8739C377.32 28.8884 378.927 28.2472 380.127 27.0883L382.303 24.9126" stroke="#4C0564" stroke-width="2.5447" stroke-linecap="round" stroke-linejoin="round"/>
<path d="M444.902 15.0262L433.209 26.7191C431.776 28.1515 429.834 28.9563 427.808 28.9563C425.782 28.9563 423.839 28.1515 422.407 26.7191C420.974 25.2866 420.169 23.3437 420.169 21.3179C420.169 19.2921 420.974 17.3493 422.407 15.9168L434.1 4.2239C435.055 3.26892 436.35 2.73242 437.7 2.73242C439.051 2.73242 440.346 3.26892 441.301 4.2239C442.256 5.17888 442.793 6.47411 442.793 7.82465C442.793 9.1752 442.256 10.4704 441.301 11.4254L429.595 23.1183C429.118 23.5958 428.47 23.864 427.795 23.864C427.12 23.864 426.472 23.5958 425.995 23.1183C425.517 22.6408 425.249 21.9932 425.249 21.3179C425.249 20.6427 425.517 19.995 425.995 19.5176L436.797 8.72802" stroke="#4C0564" stroke-width="2.5447" stroke-linecap="round" stroke-linejoin="round"/>
<path d="M492.692 4.78369H474.879C473.473 4.78369 472.334 5.92299 472.334 7.32839V25.1413C472.334 26.5467 473.473 27.686 474.879 27.686H492.692C494.097 27.686 495.236 26.5467 495.236 25.1413V7.32839C495.236 5.92299 494.097 4.78369 492.692 4.78369Z" stroke="#4C0564" stroke-width="2.5447" stroke-linecap="round" stroke-linejoin="round"/>
<path d="M479.332 13.6906C480.386 13.6906 481.24 12.8361 481.24 11.7821C481.24 10.728 480.386 9.87354 479.332 9.87354C478.278 9.87354 477.423 10.728 477.423 11.7821C477.423 12.8361 478.278 13.6906 479.332 13.6906Z" stroke="#4C0564" stroke-width="2.5447" stroke-linecap="round" stroke-linejoin="round"/>
<path d="M495.236 20.0522L488.874 13.6904L474.878 27.6863" stroke="#4C0564" stroke-width="2.5447" stroke-linecap="round" stroke-linejoin="round"/>
<path d="M534.679 28.9587C541.706 28.9587 547.403 23.2622 547.403 16.2352C547.403 9.20823 541.706 3.51172 534.679 3.51172C527.652 3.51172 521.956 9.20823 521.956 16.2352C521.956 23.2622 527.652 28.9587 534.679 28.9587Z" stroke="#4C0564" stroke-width="2.5447" stroke-linecap="round" stroke-linejoin="round"/>
<path d="M529.59 18.7798C529.59 18.7798 531.498 21.3245 534.679 21.3245C537.86 21.3245 539.769 18.7798 539.769 18.7798" stroke="#4C0564" stroke-width="2.5447" stroke-linecap="round" stroke-linejoin="round"/>
<path d="M530.862 12.418H530.875" stroke="#4C0564" stroke-width="2.5447" stroke-linecap="round" stroke-linejoin="round"/>
<path d="M538.496 12.418H538.509" stroke="#4C0564" stroke-width="2.5447" stroke-linecap="round" stroke-linejoin="round"/>
</svg>
